<?xml version="1.0" encoding="UTF-8" standalone="no"?>
<!DOCTYPE svg PUBLIC "-//W3C//DTD SVG 1.1//EN"
 "http://www.w3.org/Graphics/SVG/1.1/DTD/svg11.dtd">
<!-- Generated by graphviz version 16.1.0 (20260904.0139)
 -->
<!-- Title: audio Pages: 1 -->
<svg width="395pt" height="766pt"
 viewBox="0.00 0.00 395.00 766.00" xmlns="http://www.w3.org/2000/svg" xmlns:xlink="http://www.w3.org/1999/xlink">
<g id="graph0" class="graph" transform="scale(1 1) rotate(0) translate(4 762.15)">
<title>audio</title>
<polygon fill="white" stroke="none" points="-4,4 -4,-762.15 390.9,-762.15 390.9,4 -4,4"/>
<!-- radio -->
<g id="node1" class="node">
<title>radio</title>
<path fill="none" stroke="black" d="M156.78,-758.15C156.78,-758.15 45.75,-758.15 45.75,-758.15 39.75,-758.15 33.75,-752.15 33.75,-746.15 33.75,-746.15 33.75,-718.76 33.75,-718.76 33.75,-712.76 39.75,-706.76 45.75,-706.76 45.75,-706.76 156.78,-706.76 156.78,-706.76 162.78,-706.76 168.78,-712.76 168.78,-718.76 168.78,-718.76 168.78,-746.15 168.78,-746.15 168.78,-752.15 162.78,-758.15 156.78,-758.15"/>
<text xml:space="preserve" text-anchor="middle" x="101.26" y="-744.33" font-family="Segoe UI" font-size="10.00">Tube radio</text>
<text xml:space="preserve" text-anchor="middle" x="101.26" y="-730.08" font-family="Segoe UI" font-size="10.00">its own volume control (1)</text>
<text xml:space="preserve" text-anchor="middle" x="101.26" y="-715.83" font-family="Segoe UI" font-size="10.00">output stage (50C5)</text>
</g>
<!-- xfmr -->
<g id="node2" class="node">
<title>xfmr</title>
<path fill="none" stroke="black" d="M168.03,-679.76C168.03,-679.76 34.5,-679.76 34.5,-679.76 28.5,-679.76 22.5,-673.76 22.5,-667.76 22.5,-667.76 22.5,-654.62 22.5,-654.62 22.5,-648.62 28.5,-642.62 34.5,-642.62 34.5,-642.62 168.03,-642.62 168.03,-642.62 174.03,-642.62 180.03,-648.62 180.03,-654.62 180.03,-654.62 180.03,-667.76 180.03,-667.76 180.03,-673.76 174.03,-679.76 168.03,-679.76"/>
<text xml:space="preserve" text-anchor="middle" x="101.26" y="-665.94" font-family="Segoe UI" font-size="10.00">Output transformer, secondary</text>
<text xml:space="preserve" text-anchor="middle" x="101.26" y="-651.69" font-family="Segoe UI" font-size="10.00">7.5 Ω 5 W load across it</text>
</g>
<!-- radio&#45;&gt;xfmr -->
<g id="edge1" class="edge">
<title>radio&#45;&gt;xfmr</title>
<path fill="none" stroke="black" d="M101.26,-706.45C101.26,-700.62 101.26,-694.39 101.26,-688.5"/>
<polygon fill="black" stroke="black" points="103.72,-688.72 101.27,-681.72 98.82,-688.72 103.72,-688.72"/>
</g>
<!-- rcab -->
<g id="node3" class="node">
<title>rcab</title>
<path fill="none" stroke="black" d="M163.53,-615.62C163.53,-615.62 39,-615.62 39,-615.62 33,-615.62 27,-609.62 27,-603.62 27,-603.62 27,-590.48 27,-590.48 27,-584.48 33,-578.48 39,-578.48 39,-578.48 163.53,-578.48 163.53,-578.48 169.53,-578.48 175.53,-584.48 175.53,-590.48 175.53,-590.48 175.53,-603.62 175.53,-603.62 175.53,-609.62 169.53,-615.62 163.53,-615.62"/>
<text xml:space="preserve" text-anchor="middle" x="101.26" y="-601.8" font-family="Segoe UI" font-size="10.00">Radio&#45;to&#45;ADC cable</text>
<text xml:space="preserve" text-anchor="middle" x="101.26" y="-587.55" font-family="Segoe UI" font-size="10.00">shielded · two clip&#45;on ferrites</text>
</g>
<!-- xfmr&#45;&gt;rcab -->
<g id="edge2" class="edge">
<title>xfmr&#45;&gt;rcab</title>
<path fill="none" stroke="black" d="M101.26,-642.22C101.26,-636.5 101.26,-630.06 101.26,-623.9"/>
<polygon fill="black" stroke="black" points="103.72,-624.28 101.27,-617.28 98.82,-624.28 103.72,-624.28"/>
</g>
<!-- att -->
<g id="node4" class="node">
<title>att</title>
<path fill="none" stroke="black" d="M190.53,-551.48C190.53,-551.48 12,-551.48 12,-551.48 6,-551.48 0,-545.48 0,-539.48 0,-539.48 0,-512.09 0,-512.09 0,-506.09 6,-500.09 12,-500.09 12,-500.09 190.53,-500.09 190.53,-500.09 196.53,-500.09 202.53,-506.09 202.53,-512.09 202.53,-512.09 202.53,-539.48 202.53,-539.48 202.53,-545.48 196.53,-551.48 190.53,-551.48"/>
<text xml:space="preserve" text-anchor="middle" x="101.26" y="-537.66" font-family="Segoe UI" font-size="10.00">Attenuator at the ADC</text>
<text xml:space="preserve" text-anchor="middle" x="101.26" y="-523.41" font-family="Segoe UI" font-size="10.00">4.7 kΩ in series · 1 kΩ and 1 nF to GND</text>
<text xml:space="preserve" text-anchor="middle" x="101.26" y="-509.16" font-family="Segoe UI" font-size="10.00">one signal into both LIN and RIN (mono)</text>
</g>
<!-- rcab&#45;&gt;att -->
<g id="edge3" class="edge">
<title>rcab&#45;&gt;att</title>
<path fill="none" stroke="black" d="M101.26,-578.21C101.26,-572.7 101.26,-566.44 101.26,-560.23"/>
<polygon fill="black" stroke="black" points="103.72,-560.38 101.27,-553.38 98.82,-560.38 103.72,-560.38"/>
</g>
<!-- adc -->
<g id="node5" class="node">
<title>adc</title>
<path fill="none" stroke="black" d="M122.65,-473.09C122.65,-473.09 79.87,-473.09 79.87,-473.09 73.87,-473.09 67.87,-467.09 67.87,-461.09 67.87,-461.09 67.87,-447.95 67.87,-447.95 67.87,-441.95 73.87,-435.95 79.87,-435.95 79.87,-435.95 122.65,-435.95 122.65,-435.95 128.65,-435.95 134.65,-441.95 134.65,-447.95 134.65,-447.95 134.65,-461.09 134.65,-461.09 134.65,-467.09 128.65,-473.09 122.65,-473.09"/>
<text xml:space="preserve" text-anchor="middle" x="101.26" y="-459.27" font-family="Segoe UI" font-size="10.00">ADC board</text>
<text xml:space="preserve" text-anchor="middle" x="101.26" y="-445.02" font-family="Segoe UI" font-size="10.00">PCM1802</text>
</g>
<!-- att&#45;&gt;adc -->
<g id="edge4" class="edge">
<title>att&#45;&gt;adc</title>
<path fill="none" stroke="black" d="M101.26,-499.78C101.26,-493.95 101.26,-487.72 101.26,-481.83"/>
<polygon fill="black" stroke="black" points="103.72,-482.05 101.27,-475.05 98.82,-482.05 103.72,-482.05"/>
</g>
<!-- a32 -->
<g id="node7" class="node">
<title>a32</title>
<path fill="#e3eefc" stroke="black" stroke-width="2" d="M240.15,-397.2C240.15,-397.2 104.38,-397.2 104.38,-397.2 98.38,-397.2 92.37,-391.2 92.37,-385.2 92.37,-385.2 92.37,-357.81 92.37,-357.81 92.37,-351.81 98.37,-345.81 104.37,-345.81 104.37,-345.81 240.15,-345.81 240.15,-345.81 246.15,-345.81 252.15,-351.81 252.15,-357.81 252.15,-357.81 252.15,-385.2 252.15,-385.2 252.15,-391.2 246.15,-397.2 240.15,-397.2"/>
<text xml:space="preserve" text-anchor="middle" x="172.26" y="-383.38" font-family="Segoe UI" font-size="10.00">AUDIO BOARD (ESP32)</text>
<text xml:space="preserve" text-anchor="middle" x="172.26" y="-369.13" font-family="Segoe UI" font-size="10.00">makes all three clocks</text>
<text xml:space="preserve" text-anchor="middle" x="172.26" y="-354.88" font-family="Segoe UI" font-size="10.00">front volume knob acts here (2)</text>
</g>
<!-- adc&#45;&gt;a32 -->
<g id="edge5" class="edge">
<title>adc&#45;&gt;a32</title>
<path fill="none" stroke="black" d="M67.48,-443.75C47.69,-436.25 28.54,-424.72 39.51,-410.2 45.89,-401.77 63.63,-394.67 84.16,-388.99"/>
<polygon fill="black" stroke="black" points="84.54,-391.42 90.68,-387.27 83.29,-386.69 84.54,-391.42"/>
<text xml:space="preserve" text-anchor="middle" x="92.39" y="-414.4" font-family="Segoe UI" font-size="9.00">data out (DOUT → GPIO19)</text>
</g>
<!-- bt -->
<g id="node6" class="node">
<title>bt</title>
<text xml:space="preserve" text-anchor="middle" x="264.26" y="-452.14" font-family="Segoe UI" font-size="10.00">Bluetooth device</text>
</g>
<!-- bt&#45;&gt;a32 -->
<g id="edge6" class="edge">
<title>bt&#45;&gt;a32</title>
<path fill="none" stroke="black" stroke-dasharray="5,2" d="M250.61,-436.67C243.47,-428.3 234.33,-418.28 225.26,-410.2 222.41,-407.66 219.39,-405.13 216.29,-402.65"/>
<polygon fill="black" stroke="black" points="218.07,-400.94 211.04,-398.59 215.07,-404.81 218.07,-400.94"/>
<text xml:space="preserve" text-anchor="middle" x="257.36" y="-414.4" font-family="Segoe UI" font-size="9.00">Bluetooth</text>
</g>
<!-- a32&#45;&gt;adc -->
<g id="edge7" class="edge">
<title>a32&#45;&gt;adc</title>
<path fill="none" stroke="black" stroke-dasharray="5,2" d="M162.35,-397.66C158.2,-406.26 152.8,-415.58 146.26,-422.95 143.94,-425.57 141.34,-428.08 138.6,-430.45"/>
<polygon fill="black" stroke="black" points="137.13,-428.49 133.19,-434.76 140.19,-432.32 137.13,-428.49"/>
<text xml:space="preserve" text-anchor="middle" x="187.64" y="-414.4" font-family="Segoe UI" font-size="9.00">SCK · BCK · LRCK</text>
</g>
<!-- dac -->
<g id="node8" class="node">
<title>dac</title>
<path fill="none" stroke="black" d="M193.28,-294.31C193.28,-294.31 151.25,-294.31 151.25,-294.31 145.25,-294.31 139.25,-288.31 139.25,-282.31 139.25,-282.31 139.25,-269.17 139.25,-269.17 139.25,-263.17 145.25,-257.17 151.25,-257.17 151.25,-257.17 193.28,-257.17 193.28,-257.17 199.28,-257.17 205.28,-263.17 205.28,-269.17 205.28,-269.17 205.28,-282.31 205.28,-282.31 205.28,-288.31 199.28,-294.31 193.28,-294.31"/>
<text xml:space="preserve" text-anchor="middle" x="172.26" y="-280.49" font-family="Segoe UI" font-size="10.00">DAC board</text>
<text xml:space="preserve" text-anchor="middle" x="172.26" y="-266.24" font-family="Segoe UI" font-size="10.00">PCM5102A</text>
</g>
<!-- a32&#45;&gt;dac -->
<g id="edge8" class="edge">
<title>a32&#45;&gt;dac</title>
<path fill="none" stroke="black" d="M172.26,-345.38C172.26,-332.29 172.26,-316.31 172.26,-303.06"/>
<polygon fill="black" stroke="black" points="174.72,-303.31 172.27,-296.31 169.82,-303.31 174.72,-303.31"/>
<text xml:space="preserve" text-anchor="middle" x="210.89" y="-324.26" font-family="Segoe UI" font-size="9.00">data (GPIO4 → DIN)</text>
<text xml:space="preserve" text-anchor="middle" x="210.89" y="-311.51" font-family="Segoe UI" font-size="9.00">SCK · BCK · LRCK</text>
</g>
<!-- dcab -->
<g id="node9" class="node">
<title>dcab</title>
<path fill="none" stroke="black" d="M233.78,-218.42C233.78,-218.42 110.75,-218.42 110.75,-218.42 104.75,-218.42 98.75,-212.42 98.75,-206.42 98.75,-206.42 98.75,-179.03 98.75,-179.03 98.75,-173.03 104.75,-167.03 110.75,-167.03 110.75,-167.03 233.78,-167.03 233.78,-167.03 239.78,-167.03 245.78,-173.03 245.78,-179.03 245.78,-179.03 245.78,-206.42 245.78,-206.42 245.78,-212.42 239.78,-218.42 233.78,-218.42"/>
<text xml:space="preserve" text-anchor="middle" x="172.26" y="-204.6" font-family="Segoe UI" font-size="10.00">DAC&#45;to&#45;amplifier cable</text>
<text xml:space="preserve" text-anchor="middle" x="172.26" y="-190.35" font-family="Segoe UI" font-size="10.00">470 Ω in each of its four legs</text>
<text xml:space="preserve" text-anchor="middle" x="172.26" y="-176.1" font-family="Segoe UI" font-size="10.00">six ferrite cores</text>
</g>
<!-- dac&#45;&gt;dcab -->
<g id="edge9" class="edge">
<title>dac&#45;&gt;dcab</title>
<path fill="none" stroke="black" d="M172.26,-256.76C172.26,-248.02 172.26,-237.23 172.26,-227.06"/>
<polygon fill="black" stroke="black" points="174.72,-227.23 172.27,-220.23 169.82,-227.23 174.72,-227.23"/>
<text xml:space="preserve" text-anchor="middle" x="206.01" y="-235.62" font-family="Segoe UI" font-size="9.00">output jack (TRS)</text>
</g>
<!-- panel -->
<g id="node11" class="node">
<title>panel</title>
<path fill="#e3eefc" stroke="black" stroke-width="2" d="M304.03,-115.53C304.03,-115.53 170.5,-115.53 170.5,-115.53 164.5,-115.53 158.5,-109.53 158.5,-103.53 158.5,-103.53 158.5,-76.14 158.5,-76.14 158.5,-70.14 164.5,-64.14 170.5,-64.14 170.5,-64.14 304.03,-64.14 304.03,-64.14 310.03,-64.14 316.03,-70.14 316.03,-76.14 316.03,-76.14 316.03,-103.53 316.03,-103.53 316.03,-109.53 310.03,-115.53 304.03,-115.53"/>
<text xml:space="preserve" text-anchor="middle" x="237.26" y="-101.71" font-family="Segoe UI" font-size="10.00">Amplifier input panel</text>
<text xml:space="preserve" text-anchor="middle" x="237.26" y="-87.46" font-family="Segoe UI" font-size="10.00">balanced · AUX (TRS) · RCA pair</text>
<text xml:space="preserve" text-anchor="middle" x="237.26" y="-73.21" font-family="Segoe UI" font-size="10.00">ADDS UP its inputs</text>
</g>
<!-- dcab&#45;&gt;panel -->
<g id="edge10" class="edge">
<title>dcab&#45;&gt;panel</title>
<path fill="none" stroke="black" d="M188.33,-166.79C196.93,-153.45 207.6,-136.88 216.78,-122.62"/>
<polygon fill="black" stroke="black" points="218.61,-124.32 220.34,-117.11 214.49,-121.67 218.61,-124.32"/>
<text xml:space="preserve" text-anchor="middle" x="242.12" y="-139.1" font-family="Segoe UI" font-size="9.00">balanced input</text>
</g>
<!-- aux -->
<g id="node10" class="node">
<title>aux</title>
<text xml:space="preserve" text-anchor="middle" x="302.26" y="-190.35" font-family="Segoe UI" font-size="10.00">AUX source</text>
</g>
<!-- aux&#45;&gt;panel -->
<g id="edge11" class="edge">
<title>aux&#45;&gt;panel</title>
<path fill="none" stroke="black" d="M297.47,-174.96C293.18,-161.65 286.06,-142.96 276.26,-128.53 274.78,-126.35 273.16,-124.19 271.44,-122.08"/>
<polygon fill="black" stroke="black" points="273.5,-120.72 267.06,-117.06 269.81,-123.94 273.5,-120.72"/>
<text xml:space="preserve" text-anchor="middle" x="338.15" y="-145.48" font-family="Segoe UI" font-size="9.00">analogue: never through</text>
<text xml:space="preserve" text-anchor="middle" x="338.15" y="-132.73" font-family="Segoe UI" font-size="9.00">the audio board</text>
</g>
<!-- amp -->
<g id="node12" class="node">
<title>amp</title>
<path fill="none" stroke="black" d="M320.9,-37.14C320.9,-37.14 153.62,-37.14 153.62,-37.14 147.62,-37.14 141.62,-31.14 141.62,-25.14 141.62,-25.14 141.62,-12 141.62,-12 141.62,-6 147.62,0 153.62,0 153.62,0 320.9,0 320.9,0 326.9,0 332.9,-6 332.9,-12 332.9,-12 332.9,-25.14 332.9,-25.14 332.9,-31.14 326.9,-37.14 320.9,-37.14"/>
<text xml:space="preserve" text-anchor="middle" x="237.26" y="-23.32" font-family="Segoe UI" font-size="10.00">Amplifier and speakers</text>
<text xml:space="preserve" text-anchor="middle" x="237.26" y="-9.07" font-family="Segoe UI" font-size="10.00">its own volume control (3), at the back</text>
</g>
<!-- panel&#45;&gt;amp -->
<g id="edge12" class="edge">
<title>panel&#45;&gt;amp</title>
<path fill="none" stroke="black" d="M237.26,-63.83C237.26,-58 237.26,-51.77 237.26,-45.88"/>
<polygon fill="black" stroke="black" points="239.72,-46.1 237.27,-39.1 234.82,-46.1 239.72,-46.1"/>
</g>
</g>
</svg>
