<?xml version="1.0" encoding="UTF-8" standalone="no"?>
<!DOCTYPE svg PUBLIC "-//W3C//DTD SVG 1.1//EN"
 "http://www.w3.org/Graphics/SVG/1.1/DTD/svg11.dtd">
<!-- Generated by graphviz version 16.1.0 (20260904.0139)
 -->
<!-- Title: dial Pages: 1 -->
<svg width="415pt" height="704pt"
 viewBox="0.00 0.00 415.00 704.00" xmlns="http://www.w3.org/2000/svg" xmlns:xlink="http://www.w3.org/1999/xlink">
<g id="graph0" class="graph" transform="scale(1 1) rotate(0) translate(4 699.95)">
<title>dial</title>
<polygon fill="white" stroke="none" points="-4,4 -4,-699.95 411,-699.95 411,4 -4,4"/>
<g id="clust1" class="cluster">
<title>cluster_tune</title>
<path fill="none" stroke="#888888" stroke-dasharray="5,2" d="M20,-74.88C20,-74.88 138,-74.88 138,-74.88 144,-74.88 150,-80.88 150,-86.88 150,-86.88 150,-675.95 150,-675.95 150,-681.95 144,-687.95 138,-687.95 138,-687.95 20,-687.95 20,-687.95 14,-687.95 8,-681.95 8,-675.95 8,-675.95 8,-86.88 8,-86.88 8,-80.88 14,-74.88 20,-74.88"/>
<text xml:space="preserve" text-anchor="middle" x="79" y="-674.45" font-family="Segoe UI" font-size="10.00">Tuning: turned by hand</text>
</g>
<g id="clust2" class="cluster">
<title>cluster_needle</title>
<path fill="none" stroke="#888888" stroke-dasharray="5,2" d="M170,-67.75C170,-67.75 387,-67.75 387,-67.75 393,-67.75 399,-73.75 399,-79.75 399,-79.75 399,-547.25 399,-547.25 399,-553.25 393,-559.25 387,-559.25 387,-559.25 170,-559.25 170,-559.25 164,-559.25 158,-553.25 158,-547.25 158,-547.25 158,-79.75 158,-79.75 158,-73.75 164,-67.75 170,-67.75"/>
<text xml:space="preserve" text-anchor="middle" x="278.5" y="-545.75" font-family="Segoe UI" font-size="10.00">Needle: moved only by the motor</text>
</g>
<!-- knob -->
<g id="node1" class="node">
<title>knob</title>
<path fill="none" stroke="black" stroke-width="2" d="M123.32,-657.7C123.32,-657.7 34.67,-657.7 34.67,-657.7 28.67,-657.7 22.67,-651.7 22.67,-645.7 22.67,-645.7 22.67,-591.25 22.67,-591.25 22.67,-585.25 28.67,-579.25 34.67,-579.25 34.67,-579.25 123.32,-579.25 123.32,-579.25 129.32,-579.25 135.32,-585.25 135.32,-591.25 135.32,-591.25 135.32,-645.7 135.32,-645.7 135.32,-651.7 129.32,-657.7 123.32,-657.7"/>
<text xml:space="preserve" text-anchor="middle" x="79" y="-644.6" font-family="Segoe UI" font-size="10.00">Tuning knob</text>
<text xml:space="preserve" text-anchor="middle" x="79" y="-630.35" font-family="Segoe UI" font-size="10.00">(the radio&#39;s original)</text>
<text xml:space="preserve" text-anchor="middle" x="79" y="-616.1" font-family="Segoe UI" font-size="10.00">turned from the front</text>
<text xml:space="preserve" text-anchor="middle" x="79" y="-601.85" font-family="Segoe UI" font-size="10.00">through a printed</text>
<text xml:space="preserve" text-anchor="middle" x="79" y="-587.6" font-family="Segoe UI" font-size="10.00">shaft extension</text>
</g>
<!-- cord -->
<g id="node2" class="node">
<title>cord</title>
<path fill="none" stroke="black" d="M116.95,-514.9C116.95,-514.9 41.05,-514.9 41.05,-514.9 35.05,-514.9 29.05,-508.9 29.05,-502.9 29.05,-502.9 29.05,-490.9 29.05,-490.9 29.05,-484.9 35.05,-478.9 41.05,-478.9 41.05,-478.9 116.95,-478.9 116.95,-478.9 122.95,-478.9 128.95,-484.9 128.95,-490.9 128.95,-490.9 128.95,-502.9 128.95,-502.9 128.95,-508.9 122.95,-514.9 116.95,-514.9"/>
<text xml:space="preserve" text-anchor="middle" x="79" y="-501.65" font-family="Segoe UI" font-size="10.00">Dial cord</text>
<text xml:space="preserve" text-anchor="middle" x="79" y="-487.4" font-family="Segoe UI" font-size="10.00">drives nothing else</text>
</g>
<!-- knob&#45;&gt;cord -->
<g id="edge1" class="edge">
<title>knob&#45;&gt;cord</title>
<path fill="none" stroke="black" d="M79,-578.98C79,-560.89 79,-539.82 79,-523.68"/>
<polygon fill="black" stroke="black" points="81.45,-523.79 79,-516.79 76.55,-523.79 81.45,-523.79"/>
</g>
<!-- cap -->
<g id="node3" class="node">
<title>cap</title>
<path fill="none" stroke="black" d="M125.95,-441.8C125.95,-441.8 32.05,-441.8 32.05,-441.8 26.05,-441.8 20.05,-435.8 20.05,-429.8 20.05,-429.8 20.05,-389.6 20.05,-389.6 20.05,-383.6 26.05,-377.6 32.05,-377.6 32.05,-377.6 125.95,-377.6 125.95,-377.6 131.95,-377.6 137.95,-383.6 137.95,-389.6 137.95,-389.6 137.95,-429.8 137.95,-429.8 137.95,-435.8 131.95,-441.8 125.95,-441.8"/>
<text xml:space="preserve" text-anchor="middle" x="79" y="-428.7" font-family="Segoe UI" font-size="10.00">Tuning capacitor shaft,</text>
<text xml:space="preserve" text-anchor="middle" x="79" y="-414.45" font-family="Segoe UI" font-size="10.00">via its wheel</text>
<text xml:space="preserve" text-anchor="middle" x="79" y="-400.2" font-family="Segoe UI" font-size="10.00">clockwise raises</text>
<text xml:space="preserve" text-anchor="middle" x="79" y="-385.95" font-family="Segoe UI" font-size="10.00">the frequency</text>
</g>
<!-- cord&#45;&gt;cap -->
<g id="edge2" class="edge">
<title>cord&#45;&gt;cap</title>
<path fill="none" stroke="black" d="M79,-478.66C79,-470.45 79,-460.27 79,-450.31"/>
<polygon fill="black" stroke="black" points="81.45,-450.56 79,-443.56 76.55,-450.56 81.45,-450.56"/>
</g>
<!-- ext -->
<g id="node4" class="node">
<title>ext</title>
<path fill="none" stroke="black" d="M119.57,-354.6C119.57,-354.6 38.42,-354.6 38.42,-354.6 32.42,-354.6 26.42,-348.6 26.42,-342.6 26.42,-342.6 26.42,-302.4 26.42,-302.4 26.42,-296.4 32.42,-290.4 38.42,-290.4 38.42,-290.4 119.57,-290.4 119.57,-290.4 125.57,-290.4 131.57,-296.4 131.57,-302.4 131.57,-302.4 131.57,-342.6 131.57,-342.6 131.57,-348.6 125.57,-354.6 119.57,-354.6"/>
<text xml:space="preserve" text-anchor="middle" x="79" y="-341.5" font-family="Segoe UI" font-size="10.00">Printed shaft on the</text>
<text xml:space="preserve" text-anchor="middle" x="79" y="-327.25" font-family="Segoe UI" font-size="10.00">capacitor&#39;s shaft</text>
<text xml:space="preserve" text-anchor="middle" x="79" y="-313" font-family="Segoe UI" font-size="10.00">ends almost at</text>
<text xml:space="preserve" text-anchor="middle" x="79" y="-298.75" font-family="Segoe UI" font-size="10.00">the sensor chip</text>
</g>
<!-- cap&#45;&gt;ext -->
<g id="edge3" class="edge">
<title>cap&#45;&gt;ext</title>
<path fill="none" stroke="black" d="M79,-377.46C79,-372.89 79,-368.13 79,-363.41"/>
<polygon fill="black" stroke="black" points="81.45,-363.54 79,-356.54 76.55,-363.54 81.45,-363.54"/>
</g>
<!-- mag -->
<g id="node5" class="node">
<title>mag</title>
<path fill="none" stroke="black" d="M129.7,-267.4C129.7,-267.4 28.3,-267.4 28.3,-267.4 22.3,-267.4 16.3,-261.4 16.3,-255.4 16.3,-255.4 16.3,-200.95 16.3,-200.95 16.3,-194.95 22.3,-188.95 28.3,-188.95 28.3,-188.95 129.7,-188.95 129.7,-188.95 135.7,-188.95 141.7,-194.95 141.7,-200.95 141.7,-200.95 141.7,-255.4 141.7,-255.4 141.7,-261.4 135.7,-267.4 129.7,-267.4"/>
<text xml:space="preserve" text-anchor="middle" x="79" y="-254.3" font-family="Segoe UI" font-size="10.00">6 × 3 mm disc magnet,</text>
<text xml:space="preserve" text-anchor="middle" x="79" y="-240.05" font-family="Segoe UI" font-size="10.00">epoxied on</text>
<text xml:space="preserve" text-anchor="middle" x="79" y="-225.8" font-family="Segoe UI" font-size="10.00">diametrically magnetised</text>
<text xml:space="preserve" text-anchor="middle" x="79" y="-211.55" font-family="Segoe UI" font-size="10.00">less than 0.5 mm</text>
<text xml:space="preserve" text-anchor="middle" x="79" y="-197.3" font-family="Segoe UI" font-size="10.00">from the chip</text>
</g>
<!-- ext&#45;&gt;mag -->
<g id="edge4" class="edge">
<title>ext&#45;&gt;mag</title>
<path fill="none" stroke="black" d="M79,-289.99C79,-285.54 79,-280.9 79,-276.25"/>
<polygon fill="black" stroke="black" points="81.45,-276.41 79,-269.41 76.55,-276.41 81.45,-276.41"/>
</g>
<!-- as -->
<g id="node6" class="node">
<title>as</title>
<path fill="#e3eefc" stroke="black" d="M129.07,-147.07C129.07,-147.07 32.92,-147.07 32.92,-147.07 26.92,-147.07 20.92,-141.07 20.92,-135.07 20.92,-135.07 20.92,-94.88 20.92,-94.88 20.92,-88.88 26.92,-82.88 32.92,-82.88 32.92,-82.88 129.07,-82.88 129.07,-82.88 135.07,-82.88 141.07,-88.88 141.07,-94.88 141.07,-94.88 141.07,-135.07 141.07,-135.07 141.07,-141.07 135.07,-147.07 129.07,-147.07"/>
<text xml:space="preserve" text-anchor="middle" x="81" y="-133.97" font-family="Segoe UI" font-size="10.00">AS5600 angle sensor</text>
<text xml:space="preserve" text-anchor="middle" x="81" y="-119.72" font-family="Segoe UI" font-size="10.00">board at right angles</text>
<text xml:space="preserve" text-anchor="middle" x="81" y="-105.47" font-family="Segoe UI" font-size="10.00">to the shaft</text>
<text xml:space="preserve" text-anchor="middle" x="81" y="-91.22" font-family="Segoe UI" font-size="10.00">in its own Faraday cage</text>
</g>
<!-- mag&#45;&gt;as -->
<g id="edge5" class="edge">
<title>mag&#45;&gt;as</title>
<path fill="none" stroke="black" d="M79.69,-188.59C79.88,-178 80.09,-166.5 80.28,-155.84"/>
<polygon fill="black" stroke="black" points="82.73,-156.05 80.41,-149.01 77.83,-155.97 82.73,-156.05"/>
</g>
<!-- s3 -->
<g id="node13" class="node">
<title>s3</title>
<polygon fill="none" stroke="black" points="232.2,-36 121.8,-36 121.8,0 238.2,0 238.2,-30 232.2,-36"/>
<polyline fill="none" stroke="black" points="232.2,-36 232.2,-30"/>
<polyline fill="none" stroke="black" points="238.2,-30 232.2,-30"/>
<text xml:space="preserve" text-anchor="middle" x="180" y="-15.62" font-family="Segoe UI" font-size="10.00">Main board (ESP32&#45;S3)</text>
</g>
<!-- as&#45;&gt;s3 -->
<g id="edge11" class="edge">
<title>as&#45;&gt;s3</title>
<path fill="none" stroke="black" d="M104.18,-82.61C113.72,-70.75 125.33,-57.59 137.25,-47 139.51,-45 141.92,-43.03 144.4,-41.13"/>
<polygon fill="black" stroke="black" points="145.65,-43.25 149.87,-37.15 142.77,-39.29 145.65,-43.25"/>
<text xml:space="preserve" text-anchor="middle" x="170.62" y="-51.2" font-family="Segoe UI" font-size="9.00">GPIO38 / GPIO39</text>
</g>
<!-- drv -->
<g id="node7" class="node">
<title>drv</title>
<path fill="none" stroke="black" d="M264.07,-529C264.07,-529 179.93,-529 179.93,-529 173.93,-529 167.93,-523 167.93,-517 167.93,-517 167.93,-476.8 167.93,-476.8 167.93,-470.8 173.93,-464.8 179.93,-464.8 179.93,-464.8 264.07,-464.8 264.07,-464.8 270.07,-464.8 276.07,-470.8 276.07,-476.8 276.07,-476.8 276.07,-517 276.07,-517 276.07,-523 270.07,-529 264.07,-529"/>
<text xml:space="preserve" text-anchor="middle" x="222" y="-515.9" font-family="Segoe UI" font-size="10.00">Stepper driver board</text>
<text xml:space="preserve" text-anchor="middle" x="222" y="-501.65" font-family="Segoe UI" font-size="10.00">(ULN2003A)</text>
<text xml:space="preserve" text-anchor="middle" x="222" y="-487.4" font-family="Segoe UI" font-size="10.00">from main board</text>
<text xml:space="preserve" text-anchor="middle" x="222" y="-473.15" font-family="Segoe UI" font-size="10.00">GPIO9–12</text>
</g>
<!-- mot -->
<g id="node8" class="node">
<title>mot</title>
<path fill="none" stroke="black" d="M250.2,-427.7C250.2,-427.7 193.8,-427.7 193.8,-427.7 187.8,-427.7 181.8,-421.7 181.8,-415.7 181.8,-415.7 181.8,-403.7 181.8,-403.7 181.8,-397.7 187.8,-391.7 193.8,-391.7 193.8,-391.7 250.2,-391.7 250.2,-391.7 256.2,-391.7 262.2,-397.7 262.2,-403.7 262.2,-403.7 262.2,-415.7 262.2,-415.7 262.2,-421.7 256.2,-427.7 250.2,-427.7"/>
<text xml:space="preserve" text-anchor="middle" x="222" y="-414.45" font-family="Segoe UI" font-size="10.00">Stepper motor</text>
<text xml:space="preserve" text-anchor="middle" x="222" y="-400.2" font-family="Segoe UI" font-size="10.00">(28BYJ&#45;48)</text>
</g>
<!-- drv&#45;&gt;mot -->
<g id="edge6" class="edge">
<title>drv&#45;&gt;mot</title>
<path fill="none" stroke="black" d="M222,-464.66C222,-455.4 222,-445.36 222,-436.49"/>
<polygon fill="black" stroke="black" points="224.45,-436.59 222,-429.59 219.55,-436.59 224.45,-436.59"/>
</g>
<!-- mount -->
<g id="node9" class="node">
<title>mount</title>
<path fill="none" stroke="black" d="M266.32,-340.5C266.32,-340.5 177.68,-340.5 177.68,-340.5 171.68,-340.5 165.68,-334.5 165.68,-328.5 165.68,-328.5 165.68,-316.5 165.68,-316.5 165.68,-310.5 171.68,-304.5 177.68,-304.5 177.68,-304.5 266.32,-304.5 266.32,-304.5 272.32,-304.5 278.32,-310.5 278.32,-316.5 278.32,-316.5 278.32,-328.5 278.32,-328.5 278.32,-334.5 272.32,-340.5 266.32,-340.5"/>
<text xml:space="preserve" text-anchor="middle" x="222" y="-327.25" font-family="Segoe UI" font-size="10.00">Printed needle mount</text>
<text xml:space="preserve" text-anchor="middle" x="222" y="-313" font-family="Segoe UI" font-size="10.00">on the motor&#39;s shaft</text>
</g>
<!-- mot&#45;&gt;mount -->
<g id="edge7" class="edge">
<title>mot&#45;&gt;mount</title>
<path fill="none" stroke="black" d="M222,-391.46C222,-379.33 222,-362.9 222,-349.23"/>
<polygon fill="black" stroke="black" points="224.45,-349.23 222,-342.23 219.55,-349.23 224.45,-349.23"/>
</g>
<!-- needle -->
<g id="node10" class="node">
<title>needle</title>
<path fill="none" stroke="black" stroke-width="2" d="M254.32,-246.17C254.32,-246.17 177.68,-246.17 177.68,-246.17 171.68,-246.17 165.68,-240.17 165.68,-234.17 165.68,-234.17 165.68,-222.17 165.68,-222.17 165.68,-216.17 171.68,-210.17 177.68,-210.17 177.68,-210.17 254.32,-210.17 254.32,-210.17 260.32,-210.17 266.32,-216.17 266.32,-222.17 266.32,-222.17 266.32,-234.17 266.32,-234.17 266.32,-240.17 260.32,-246.17 254.32,-246.17"/>
<text xml:space="preserve" text-anchor="middle" x="216" y="-232.92" font-family="Segoe UI" font-size="10.00">The radio&#39;s original</text>
<text xml:space="preserve" text-anchor="middle" x="216" y="-218.67" font-family="Segoe UI" font-size="10.00">brass needle</text>
</g>
<!-- mount&#45;&gt;needle -->
<g id="edge8" class="edge">
<title>mount&#45;&gt;needle</title>
<path fill="none" stroke="black" d="M220.87,-304.13C219.97,-290.21 218.68,-270.46 217.66,-254.73"/>
<polygon fill="black" stroke="black" points="220.12,-254.8 217.22,-247.97 215.23,-255.12 220.12,-254.8"/>
</g>
<!-- arm -->
<g id="node11" class="node">
<title>arm</title>
<path fill="none" stroke="black" d="M379.45,-260.27C379.45,-260.27 300.55,-260.27 300.55,-260.27 294.55,-260.27 288.55,-254.27 288.55,-248.27 288.55,-248.27 288.55,-208.07 288.55,-208.07 288.55,-202.07 294.55,-196.07 300.55,-196.07 300.55,-196.07 379.45,-196.07 379.45,-196.07 385.45,-196.07 391.45,-202.07 391.45,-208.07 391.45,-208.07 391.45,-248.27 391.45,-248.27 391.45,-254.27 385.45,-260.27 379.45,-260.27"/>
<text xml:space="preserve" text-anchor="middle" x="340" y="-247.17" font-family="Segoe UI" font-size="10.00">Small arm, opposite</text>
<text xml:space="preserve" text-anchor="middle" x="340" y="-232.92" font-family="Segoe UI" font-size="10.00">side of the mount</text>
<text xml:space="preserve" text-anchor="middle" x="340" y="-218.67" font-family="Segoe UI" font-size="10.00">≈ 3 × 3 × 0.2 mm</text>
<text xml:space="preserve" text-anchor="middle" x="340" y="-204.42" font-family="Segoe UI" font-size="10.00">square magnet</text>
</g>
<!-- mount&#45;&gt;arm -->
<g id="edge9" class="edge">
<title>mount&#45;&gt;arm</title>
<path fill="none" stroke="black" d="M244.19,-304.13C257.99,-293.34 276.24,-279.06 293.12,-265.85"/>
<polygon fill="black" stroke="black" points="294.56,-267.84 298.56,-261.6 291.54,-263.98 294.56,-267.84"/>
</g>
<!-- hall -->
<g id="node12" class="node">
<title>hall</title>
<path fill="#e3eefc" stroke="black" d="M320.45,-154.2C320.45,-154.2 235.55,-154.2 235.55,-154.2 229.55,-154.2 223.55,-148.2 223.55,-142.2 223.55,-142.2 223.55,-87.75 223.55,-87.75 223.55,-81.75 229.55,-75.75 235.55,-75.75 235.55,-75.75 320.45,-75.75 320.45,-75.75 326.45,-75.75 332.45,-81.75 332.45,-87.75 332.45,-87.75 332.45,-142.2 332.45,-142.2 332.45,-148.2 326.45,-154.2 320.45,-154.2"/>
<text xml:space="preserve" text-anchor="middle" x="278" y="-141.1" font-family="Segoe UI" font-size="10.00">A3144 Hall switch</text>
<text xml:space="preserve" text-anchor="middle" x="278" y="-126.85" font-family="Segoe UI" font-size="10.00">(the index)</text>
<text xml:space="preserve" text-anchor="middle" x="278" y="-112.6" font-family="Segoe UI" font-size="10.00">perfboard in a</text>
<text xml:space="preserve" text-anchor="middle" x="278" y="-98.35" font-family="Segoe UI" font-size="10.00">printed case</text>
<text xml:space="preserve" text-anchor="middle" x="278" y="-84.1" font-family="Segoe UI" font-size="10.00">→ main board GPIO5</text>
</g>
<!-- arm&#45;&gt;hall -->
<g id="edge10" class="edge">
<title>arm&#45;&gt;hall</title>
<path fill="none" stroke="black" d="M322.4,-195.61C316.53,-185.07 309.86,-173.11 303.51,-161.72"/>
<polygon fill="black" stroke="black" points="305.68,-160.58 300.13,-155.66 301.4,-162.97 305.68,-160.58"/>
<text xml:space="preserve" text-anchor="middle" x="333.36" y="-169.4" font-family="Segoe UI" font-size="9.00">passes over</text>
</g>
<!-- hall&#45;&gt;s3 -->
<g id="edge12" class="edge">
<title>hall&#45;&gt;s3</title>
<path fill="none" stroke="black" d="M238.14,-75.35C226.45,-64.01 214.03,-51.98 203.69,-41.96"/>
<polygon fill="black" stroke="black" points="205.68,-40.47 198.95,-37.36 202.27,-43.99 205.68,-40.47"/>
<text xml:space="preserve" text-anchor="middle" x="232.6" y="-51.2" font-family="Segoe UI" font-size="9.00">GPIO5</text>
</g>
</g>
</svg>
