<?xml version="1.0" encoding="UTF-8" standalone="no"?>
<!DOCTYPE svg PUBLIC "-//W3C//DTD SVG 1.1//EN"
 "http://www.w3.org/Graphics/SVG/1.1/DTD/svg11.dtd">
<!-- Generated by graphviz version 16.1.0 (20260904.0139)
 -->
<!-- Pages: 1 -->
<svg width="803pt" height="197pt"
 viewBox="0.00 0.00 803.00 197.00" xmlns="http://www.w3.org/2000/svg" xmlns:xlink="http://www.w3.org/1999/xlink">
<g id="graph0" class="graph" transform="scale(1 1) rotate(0) translate(4 192.5)">
<polygon fill="#ffffff" stroke="none" points="-4,4 -4,-192.5 799.25,-192.5 799.25,4 -4,4"/>
<!-- 5VDC -->
<g id="node1" class="node">
<title>5VDC</title>
<polygon fill="#ffffff" stroke="black" points="82.25,-152 0,-152 0,-14.5 82.25,-14.5 82.25,-152"/>
<polygon fill="none" stroke="black" points="0,-124.5 0,-152 82.25,-152 82.25,-124.5 0,-124.5"/>
<text xml:space="preserve" text-anchor="start" x="23.5" y="-132.25" font-family="Segoe UI" font-size="14.00">5VDC</text>
<polygon fill="none" stroke="black" points="0,-97 0,-124.5 82.25,-124.5 82.25,-97 0,-97"/>
<text xml:space="preserve" text-anchor="start" x="24.62" y="-104.75" font-family="Segoe UI" font-size="14.00">2&#45;pin</text>
<polygon fill="none" stroke="black" points="0,-69.5 0,-97 55,-97 55,-69.5 0,-69.5"/>
<text xml:space="preserve" text-anchor="start" x="12.5" y="-77.25" font-family="Segoe UI" font-size="14.00">GND</text>
<polygon fill="none" stroke="black" points="55,-69.5 55,-97 82.25,-97 82.25,-69.5 55,-69.5"/>
<text xml:space="preserve" text-anchor="start" x="64.88" y="-77.25" font-family="Segoe UI" font-size="14.00">1</text>
<polygon fill="none" stroke="black" points="0,-42 0,-69.5 55,-69.5 55,-42 0,-42"/>
<text xml:space="preserve" text-anchor="start" x="9.88" y="-49.75" font-family="Segoe UI" font-size="14.00">5VDC</text>
<polygon fill="none" stroke="black" points="55,-42 55,-69.5 82.25,-69.5 82.25,-42 55,-42"/>
<text xml:space="preserve" text-anchor="start" x="64.88" y="-49.75" font-family="Segoe UI" font-size="14.00">2</text>
<polygon fill="none" stroke="black" points="0,-14.5 0,-42 82.25,-42 82.25,-14.5 0,-14.5"/>
<text xml:space="preserve" text-anchor="start" x="4" y="-22.25" font-family="Segoe UI" font-size="14.00">5 V bus jack</text>
</g>
<!-- Main board 5 V -->
<g id="node3" class="node">
<title>Main board 5 V</title>
<polygon fill="#ffffff" stroke="black" points="502.25,-188.5 226.25,-188.5 226.25,0 502.25,0 502.25,-188.5"/>
<polygon fill="none" stroke="black" points="226.25,-161 226.25,-188.5 502.25,-188.5 502.25,-161 226.25,-161"/>
<text xml:space="preserve" text-anchor="start" x="316.62" y="-168.75" font-family="Segoe UI" font-size="14.00">Main board 5 V</text>
<polygon fill="none" stroke="black" points="226.25,-133.5 226.25,-161 502.25,-161 502.25,-133.5 226.25,-133.5"/>
<text xml:space="preserve" text-anchor="start" x="357.12" y="-141.25" font-family="Segoe UI" font-size="14.00">2x</text>
<text xml:space="preserve" text-anchor="start" x="268.38" y="-115.75" font-family="Segoe UI" font-size="14.00"> </text>
<text xml:space="preserve" text-anchor="start" x="230.88" y="-92.25" font-family="Segoe UI" font-size="14.00">5VDC:1:GND</text>
<text xml:space="preserve" text-anchor="start" x="318.88" y="-92.25" font-family="Segoe UI" font-size="14.00"> &#160;&#160;&#160;&#160;1:GND &#160;&#160;&#160;</text>
<text xml:space="preserve" text-anchor="start" x="402.38" y="-92.25" font-family="Segoe UI" font-size="14.00">S3_5VIN:1:GND</text>
<polygon fill="#000000" stroke="none" points="226.25,-84.5 226.25,-86.5 502.25,-86.5 502.25,-84.5 226.25,-84.5"/>
<polygon fill="#ffffff" stroke="none" points="226.25,-82.5 226.25,-84.5 502.25,-84.5 502.25,-82.5 226.25,-82.5"/>
<polygon fill="#000000" stroke="none" points="226.25,-80.5 226.25,-82.5 502.25,-82.5 502.25,-80.5 226.25,-80.5"/>
<text xml:space="preserve" text-anchor="start" x="228.25" y="-62.75" font-family="Segoe UI" font-size="14.00">5VDC:2:5VDC</text>
<text xml:space="preserve" text-anchor="start" x="316.25" y="-62.75" font-family="Segoe UI" font-size="14.00"> &#160;&#160;&#160;&#160;2:5VDC &#160;&#160;&#160;</text>
<text xml:space="preserve" text-anchor="start" x="399.75" y="-62.75" font-family="Segoe UI" font-size="14.00">S3_5VIN:2:5VDC</text>
<polygon fill="#000000" stroke="none" points="226.25,-55 226.25,-57 502.25,-57 502.25,-55 226.25,-55"/>
<polygon fill="#ffffff" stroke="none" points="226.25,-53 226.25,-55 502.25,-55 502.25,-53 226.25,-53"/>
<polygon fill="#000000" stroke="none" points="226.25,-51 226.25,-53 502.25,-53 502.25,-51 226.25,-51"/>
<text xml:space="preserve" text-anchor="start" x="268.38" y="-33.25" font-family="Segoe UI" font-size="14.00"> </text>
<polygon fill="none" stroke="black" points="226.25,0 226.25,-27.5 502.25,-27.5 502.25,0 226.25,0"/>
<text xml:space="preserve" text-anchor="start" x="335.38" y="-7.75" font-family="Segoe UI" font-size="14.00">no shield</text>
</g>
<!-- 5VDC&#45;&#45;Main board 5 V -->
<g id="edge1" class="edge">
<title>5VDC:e&#45;&#45;Main board 5 V:w</title>
<path fill="none" stroke="#000000" stroke-width="2" d="M82.25,-81.25C146.28,-81.25 162.28,-81.5 226.25,-81.5"/>
<path fill="none" stroke="#ffffff" stroke-width="2" d="M82.25,-83.25C146.25,-83.25 162.25,-83.5 226.25,-83.5"/>
<path fill="none" stroke="#000000" stroke-width="2" d="M82.25,-85.25C146.22,-85.25 162.22,-85.5 226.25,-85.5"/>
</g>
<!-- 5VDC&#45;&#45;Main board 5 V -->
<g id="edge3" class="edge">
<title>5VDC:e&#45;&#45;Main board 5 V:w</title>
<path fill="none" stroke="#000000" stroke-width="2" d="M82.25,-53.75C146.04,-53.76 162.03,-52.01 226.25,-52"/>
<path fill="none" stroke="#ffffff" stroke-width="2" d="M82.25,-55.75C146.25,-55.75 162.25,-54 226.25,-54"/>
<path fill="none" stroke="#000000" stroke-width="2" d="M82.25,-57.75C146.47,-57.74 162.46,-55.99 226.25,-56"/>
</g>
<!-- S3_5VIN -->
<g id="node2" class="node">
<title>S3_5VIN</title>
<polygon fill="#ffffff" stroke="black" points="795.25,-152 646.25,-152 646.25,-14.5 795.25,-14.5 795.25,-152"/>
<polygon fill="none" stroke="black" points="646.25,-124.5 646.25,-152 795.25,-152 795.25,-124.5 646.25,-124.5"/>
<text xml:space="preserve" text-anchor="start" x="694.88" y="-132.25" font-family="Segoe UI" font-size="14.00">S3_5VIN</text>
<polygon fill="none" stroke="black" points="646.25,-97 646.25,-124.5 795.25,-124.5 795.25,-97 646.25,-97"/>
<text xml:space="preserve" text-anchor="start" x="704.25" y="-104.75" font-family="Segoe UI" font-size="14.00">2&#45;pin</text>
<polygon fill="none" stroke="black" points="646.25,-69.5 646.25,-97 706.88,-97 706.88,-69.5 646.25,-69.5"/>
<text xml:space="preserve" text-anchor="start" x="672.81" y="-77.25" font-family="Segoe UI" font-size="14.00">1</text>
<polygon fill="none" stroke="black" points="706.88,-69.5 706.88,-97 795.25,-97 795.25,-69.5 706.88,-69.5"/>
<text xml:space="preserve" text-anchor="start" x="736.06" y="-77.25" font-family="Segoe UI" font-size="14.00">GND</text>
<polygon fill="none" stroke="black" points="646.25,-42 646.25,-69.5 706.88,-69.5 706.88,-42 646.25,-42"/>
<text xml:space="preserve" text-anchor="start" x="672.81" y="-49.75" font-family="Segoe UI" font-size="14.00">2</text>
<polygon fill="none" stroke="black" points="706.88,-42 706.88,-69.5 795.25,-69.5 795.25,-42 706.88,-42"/>
<text xml:space="preserve" text-anchor="start" x="733.44" y="-49.75" font-family="Segoe UI" font-size="14.00">5VDC</text>
<polygon fill="none" stroke="black" points="646.25,-14.5 646.25,-42 795.25,-42 795.25,-14.5 646.25,-14.5"/>
<text xml:space="preserve" text-anchor="start" x="650.25" y="-22.25" font-family="Segoe UI" font-size="14.00">Main board (ESP32&#45;S3)</text>
</g>
<!-- Main board 5 V&#45;&#45;S3_5VIN -->
<g id="edge2" class="edge">
<title>Main board 5 V:e&#45;&#45;S3_5VIN:w</title>
<path fill="none" stroke="#000000" stroke-width="2" d="M502.25,-81.5C566.22,-81.5 582.22,-81.25 646.25,-81.25"/>
<path fill="none" stroke="#ffffff" stroke-width="2" d="M502.25,-83.5C566.25,-83.5 582.25,-83.25 646.25,-83.25"/>
<path fill="none" stroke="#000000" stroke-width="2" d="M502.25,-85.5C566.28,-85.5 582.28,-85.25 646.25,-85.25"/>
</g>
<!-- Main board 5 V&#45;&#45;S3_5VIN -->
<g id="edge4" class="edge">
<title>Main board 5 V:e&#45;&#45;S3_5VIN:w</title>
<path fill="none" stroke="#000000" stroke-width="2" d="M502.25,-52C566.47,-52.01 582.46,-53.76 646.25,-53.75"/>
<path fill="none" stroke="#ffffff" stroke-width="2" d="M502.25,-54C566.25,-54 582.25,-55.75 646.25,-55.75"/>
<path fill="none" stroke="#000000" stroke-width="2" d="M502.25,-56C566.04,-55.99 582.03,-57.74 646.25,-57.75"/>
</g>
</g>
</svg>
