<?xml version="1.0" encoding="UTF-8" standalone="no"?>
<!DOCTYPE svg PUBLIC "-//W3C//DTD SVG 1.1//EN"
 "http://www.w3.org/Graphics/SVG/1.1/DTD/svg11.dtd">
<!-- Generated by graphviz version 16.1.0 (20260904.0139)
 -->
<!-- Pages: 1 -->
<svg width="1241pt" height="344pt"
 viewBox="0.00 0.00 1241.00 344.00" xmlns="http://www.w3.org/2000/svg" xmlns:xlink="http://www.w3.org/1999/xlink">
<g id="graph0" class="graph" transform="scale(1 1) rotate(0) translate(4 340)">
<polygon fill="#ffffff" stroke="none" points="-4,4 -4,-340 1236.5,-340 1236.5,4 -4,4"/>
<!-- DISPLAY_OUT -->
<g id="node1" class="node">
<title>DISPLAY_OUT</title>
<polygon fill="#ffffff" stroke="black" points="250.25,-294.5 0,-294.5 0,-19.5 250.25,-19.5 250.25,-294.5"/>
<polygon fill="none" stroke="black" points="0,-267 0,-294.5 250.25,-294.5 250.25,-267 0,-267"/>
<text xml:space="preserve" text-anchor="start" x="82.75" y="-274.75" font-family="Segoe UI" font-size="14.00">DISPLAY_OUT</text>
<polygon fill="none" stroke="black" points="0,-239.5 0,-267 250.25,-267 250.25,-239.5 0,-239.5"/>
<text xml:space="preserve" text-anchor="start" x="108.62" y="-247.25" font-family="Segoe UI" font-size="14.00">7&#45;pin</text>
<polygon fill="none" stroke="black" points="0,-212 0,-239.5 157,-239.5 157,-212 0,-212"/>
<text xml:space="preserve" text-anchor="start" x="43.25" y="-219.75" font-family="Segoe UI" font-size="14.00">SEG_A_BUS</text>
<polygon fill="none" stroke="black" points="157,-212 157,-239.5 250.25,-239.5 250.25,-212 157,-212"/>
<text xml:space="preserve" text-anchor="start" x="199.88" y="-219.75" font-family="Segoe UI" font-size="14.00">1</text>
<polygon fill="none" stroke="black" points="0,-184.5 0,-212 157,-212 157,-184.5 0,-184.5"/>
<text xml:space="preserve" text-anchor="start" x="43.62" y="-192.25" font-family="Segoe UI" font-size="14.00">SEG_B_BUS</text>
<polygon fill="none" stroke="black" points="157,-184.5 157,-212 250.25,-212 250.25,-184.5 157,-184.5"/>
<text xml:space="preserve" text-anchor="start" x="199.88" y="-192.25" font-family="Segoe UI" font-size="14.00">2</text>
<polygon fill="none" stroke="black" points="0,-157 0,-184.5 157,-184.5 157,-157 0,-157"/>
<text xml:space="preserve" text-anchor="start" x="43.25" y="-164.75" font-family="Segoe UI" font-size="14.00">SEG_C_BUS</text>
<polygon fill="none" stroke="black" points="157,-157 157,-184.5 250.25,-184.5 250.25,-157 157,-157"/>
<text xml:space="preserve" text-anchor="start" x="199.88" y="-164.75" font-family="Segoe UI" font-size="14.00">3</text>
<polygon fill="none" stroke="black" points="0,-129.5 0,-157 157,-157 157,-129.5 0,-129.5"/>
<text xml:space="preserve" text-anchor="start" x="42.88" y="-137.25" font-family="Segoe UI" font-size="14.00">SEG_D_BUS</text>
<polygon fill="none" stroke="black" points="157,-129.5 157,-157 250.25,-157 250.25,-129.5 157,-129.5"/>
<text xml:space="preserve" text-anchor="start" x="199.88" y="-137.25" font-family="Segoe UI" font-size="14.00">4</text>
<polygon fill="none" stroke="black" points="0,-102 0,-129.5 157,-129.5 157,-102 0,-102"/>
<text xml:space="preserve" text-anchor="start" x="44.38" y="-109.75" font-family="Segoe UI" font-size="14.00">SEG_E_BUS</text>
<polygon fill="none" stroke="black" points="157,-102 157,-129.5 250.25,-129.5 250.25,-102 157,-102"/>
<text xml:space="preserve" text-anchor="start" x="199.88" y="-109.75" font-family="Segoe UI" font-size="14.00">5</text>
<polygon fill="none" stroke="black" points="0,-74.5 0,-102 157,-102 157,-74.5 0,-74.5"/>
<text xml:space="preserve" text-anchor="start" x="44.38" y="-82.25" font-family="Segoe UI" font-size="14.00">SEG_F_BUS</text>
<polygon fill="none" stroke="black" points="157,-74.5 157,-102 250.25,-102 250.25,-74.5 157,-74.5"/>
<text xml:space="preserve" text-anchor="start" x="199.88" y="-82.25" font-family="Segoe UI" font-size="14.00">6</text>
<polygon fill="none" stroke="black" points="0,-47 0,-74.5 157,-74.5 157,-47 0,-47"/>
<text xml:space="preserve" text-anchor="start" x="42.88" y="-54.75" font-family="Segoe UI" font-size="14.00">SEG_G_BUS</text>
<polygon fill="none" stroke="black" points="157,-47 157,-74.5 250.25,-74.5 250.25,-47 157,-47"/>
<text xml:space="preserve" text-anchor="start" x="199.88" y="-54.75" font-family="Segoe UI" font-size="14.00">7</text>
<polygon fill="none" stroke="black" points="0,-19.5 0,-47 250.25,-47 250.25,-19.5 0,-19.5"/>
<text xml:space="preserve" text-anchor="start" x="4" y="-27.25" font-family="Segoe UI" font-size="14.00">Display driver board (segment outputs)</text>
</g>
<!-- Segment buses -->
<g id="node3" class="node">
<title>Segment buses</title>
<polygon fill="#ffffff" stroke="black" points="860,-336 394.25,-336 394.25,0 860,0 860,-336"/>
<polygon fill="none" stroke="black" points="394.25,-308.5 394.25,-336 860,-336 860,-308.5 394.25,-308.5"/>
<text xml:space="preserve" text-anchor="start" x="579.5" y="-316.25" font-family="Segoe UI" font-size="14.00">Segment buses</text>
<polygon fill="none" stroke="black" points="394.25,-281 394.25,-308.5 860,-308.5 860,-281 394.25,-281"/>
<text xml:space="preserve" text-anchor="start" x="620" y="-288.75" font-family="Segoe UI" font-size="14.00">7x</text>
<text xml:space="preserve" text-anchor="start" x="479.12" y="-263.25" font-family="Segoe UI" font-size="14.00"> </text>
<text xml:space="preserve" text-anchor="start" x="396.62" y="-239.75" font-family="Segoe UI" font-size="14.00">DISPLAY_OUT:1:SEG_A_BUS</text>
<text xml:space="preserve" text-anchor="start" x="570.12" y="-239.75" font-family="Segoe UI" font-size="14.00"> &#160;&#160;&#160;&#160;1:SEG_A_BUS &#160;&#160;&#160;</text>
<text xml:space="preserve" text-anchor="start" x="689.62" y="-239.75" font-family="Segoe UI" font-size="14.00">LEDITRON_IN:1:SEG_A_BUS</text>
<polygon fill="#000000" stroke="none" points="394.25,-232 394.25,-234 860,-234 860,-232 394.25,-232"/>
<polygon fill="#ffffff" stroke="none" points="394.25,-230 394.25,-232 860,-232 860,-230 394.25,-230"/>
<polygon fill="#000000" stroke="none" points="394.25,-228 394.25,-230 860,-230 860,-228 394.25,-228"/>
<text xml:space="preserve" text-anchor="start" x="397" y="-210.25" font-family="Segoe UI" font-size="14.00">DISPLAY_OUT:2:SEG_B_BUS</text>
<text xml:space="preserve" text-anchor="start" x="570.5" y="-210.25" font-family="Segoe UI" font-size="14.00"> &#160;&#160;&#160;&#160;2:SEG_B_BUS &#160;&#160;&#160;</text>
<text xml:space="preserve" text-anchor="start" x="690" y="-210.25" font-family="Segoe UI" font-size="14.00">LEDITRON_IN:2:SEG_B_BUS</text>
<polygon fill="#000000" stroke="none" points="394.25,-202.5 394.25,-204.5 860,-204.5 860,-202.5 394.25,-202.5"/>
<polygon fill="#ffffff" stroke="none" points="394.25,-200.5 394.25,-202.5 860,-202.5 860,-200.5 394.25,-200.5"/>
<polygon fill="#000000" stroke="none" points="394.25,-198.5 394.25,-200.5 860,-200.5 860,-198.5 394.25,-198.5"/>
<text xml:space="preserve" text-anchor="start" x="396.62" y="-180.75" font-family="Segoe UI" font-size="14.00">DISPLAY_OUT:3:SEG_C_BUS</text>
<text xml:space="preserve" text-anchor="start" x="570.12" y="-180.75" font-family="Segoe UI" font-size="14.00"> &#160;&#160;&#160;&#160;3:SEG_C_BUS &#160;&#160;&#160;</text>
<text xml:space="preserve" text-anchor="start" x="689.62" y="-180.75" font-family="Segoe UI" font-size="14.00">LEDITRON_IN:3:SEG_C_BUS</text>
<polygon fill="#000000" stroke="none" points="394.25,-173 394.25,-175 860,-175 860,-173 394.25,-173"/>
<polygon fill="#ffffff" stroke="none" points="394.25,-171 394.25,-173 860,-173 860,-171 394.25,-171"/>
<polygon fill="#000000" stroke="none" points="394.25,-169 394.25,-171 860,-171 860,-169 394.25,-169"/>
<text xml:space="preserve" text-anchor="start" x="396.25" y="-151.25" font-family="Segoe UI" font-size="14.00">DISPLAY_OUT:4:SEG_D_BUS</text>
<text xml:space="preserve" text-anchor="start" x="569.75" y="-151.25" font-family="Segoe UI" font-size="14.00"> &#160;&#160;&#160;&#160;4:SEG_D_BUS &#160;&#160;&#160;</text>
<text xml:space="preserve" text-anchor="start" x="689.25" y="-151.25" font-family="Segoe UI" font-size="14.00">LEDITRON_IN:4:SEG_D_BUS</text>
<polygon fill="#000000" stroke="none" points="394.25,-143.5 394.25,-145.5 860,-145.5 860,-143.5 394.25,-143.5"/>
<polygon fill="#ffffff" stroke="none" points="394.25,-141.5 394.25,-143.5 860,-143.5 860,-141.5 394.25,-141.5"/>
<polygon fill="#000000" stroke="none" points="394.25,-139.5 394.25,-141.5 860,-141.5 860,-139.5 394.25,-139.5"/>
<text xml:space="preserve" text-anchor="start" x="397.75" y="-121.75" font-family="Segoe UI" font-size="14.00">DISPLAY_OUT:5:SEG_E_BUS</text>
<text xml:space="preserve" text-anchor="start" x="571.25" y="-121.75" font-family="Segoe UI" font-size="14.00"> &#160;&#160;&#160;&#160;5:SEG_E_BUS &#160;&#160;&#160;</text>
<text xml:space="preserve" text-anchor="start" x="690.75" y="-121.75" font-family="Segoe UI" font-size="14.00">LEDITRON_IN:5:SEG_E_BUS</text>
<polygon fill="#000000" stroke="none" points="394.25,-114 394.25,-116 860,-116 860,-114 394.25,-114"/>
<polygon fill="#ffffff" stroke="none" points="394.25,-112 394.25,-114 860,-114 860,-112 394.25,-112"/>
<polygon fill="#000000" stroke="none" points="394.25,-110 394.25,-112 860,-112 860,-110 394.25,-110"/>
<text xml:space="preserve" text-anchor="start" x="397.75" y="-92.25" font-family="Segoe UI" font-size="14.00">DISPLAY_OUT:6:SEG_F_BUS</text>
<text xml:space="preserve" text-anchor="start" x="571.25" y="-92.25" font-family="Segoe UI" font-size="14.00"> &#160;&#160;&#160;&#160;6:SEG_F_BUS &#160;&#160;&#160;</text>
<text xml:space="preserve" text-anchor="start" x="690.75" y="-92.25" font-family="Segoe UI" font-size="14.00">LEDITRON_IN:6:SEG_F_BUS</text>
<polygon fill="#000000" stroke="none" points="394.25,-84.5 394.25,-86.5 860,-86.5 860,-84.5 394.25,-84.5"/>
<polygon fill="#ffffff" stroke="none" points="394.25,-82.5 394.25,-84.5 860,-84.5 860,-82.5 394.25,-82.5"/>
<polygon fill="#000000" stroke="none" points="394.25,-80.5 394.25,-82.5 860,-82.5 860,-80.5 394.25,-80.5"/>
<text xml:space="preserve" text-anchor="start" x="396.25" y="-62.75" font-family="Segoe UI" font-size="14.00">DISPLAY_OUT:7:SEG_G_BUS</text>
<text xml:space="preserve" text-anchor="start" x="569.75" y="-62.75" font-family="Segoe UI" font-size="14.00"> &#160;&#160;&#160;&#160;7:SEG_G_BUS &#160;&#160;&#160;</text>
<text xml:space="preserve" text-anchor="start" x="689.25" y="-62.75" font-family="Segoe UI" font-size="14.00">LEDITRON_IN:7:SEG_G_BUS</text>
<polygon fill="#000000" stroke="none" points="394.25,-55 394.25,-57 860,-57 860,-55 394.25,-55"/>
<polygon fill="#ffffff" stroke="none" points="394.25,-53 394.25,-55 860,-55 860,-53 394.25,-53"/>
<polygon fill="#000000" stroke="none" points="394.25,-51 394.25,-53 860,-53 860,-51 394.25,-51"/>
<text xml:space="preserve" text-anchor="start" x="479.12" y="-33.25" font-family="Segoe UI" font-size="14.00"> </text>
<polygon fill="none" stroke="black" points="394.25,0 394.25,-27.5 860,-27.5 860,0 394.25,0"/>
<text xml:space="preserve" text-anchor="start" x="547.25" y="-7.75" font-family="Segoe UI" font-size="14.00">no ground wire, no shield</text>
</g>
<!-- DISPLAY_OUT&#45;&#45;Segment buses -->
<g id="edge1" class="edge">
<title>DISPLAY_OUT:e&#45;&#45;Segment buses:w</title>
<path fill="none" stroke="#000000" stroke-width="2" d="M250.25,-223.75C314.92,-223.85 330.83,-229.1 394.25,-229"/>
<path fill="none" stroke="#ffffff" stroke-width="2" d="M250.25,-225.75C314.29,-225.75 330.21,-231 394.25,-231"/>
<path fill="none" stroke="#000000" stroke-width="2" d="M250.25,-227.75C313.67,-227.65 329.58,-232.9 394.25,-233"/>
</g>
<!-- DISPLAY_OUT&#45;&#45;Segment buses -->
<g id="edge3" class="edge">
<title>DISPLAY_OUT:e&#45;&#45;Segment buses:w</title>
<path fill="none" stroke="#000000" stroke-width="2" d="M250.25,-196.25C314.67,-196.29 330.63,-199.54 394.25,-199.5"/>
<path fill="none" stroke="#ffffff" stroke-width="2" d="M250.25,-198.25C314.27,-198.25 330.23,-201.5 394.25,-201.5"/>
<path fill="none" stroke="#000000" stroke-width="2" d="M250.25,-200.25C313.87,-200.21 329.83,-203.46 394.25,-203.5"/>
</g>
<!-- DISPLAY_OUT&#45;&#45;Segment buses -->
<g id="edge5" class="edge">
<title>DISPLAY_OUT:e&#45;&#45;Segment buses:w</title>
<path fill="none" stroke="#000000" stroke-width="2" d="M250.25,-168.75C314.41,-168.76 330.4,-170.01 394.25,-170"/>
<path fill="none" stroke="#ffffff" stroke-width="2" d="M250.25,-170.75C314.25,-170.75 330.25,-172 394.25,-172"/>
<path fill="none" stroke="#000000" stroke-width="2" d="M250.25,-172.75C314.1,-172.74 330.09,-173.99 394.25,-174"/>
</g>
<!-- DISPLAY_OUT&#45;&#45;Segment buses -->
<g id="edge7" class="edge">
<title>DISPLAY_OUT:e&#45;&#45;Segment buses:w</title>
<path fill="none" stroke="#000000" stroke-width="2" d="M250.25,-141.25C314.16,-141.25 330.16,-140.5 394.25,-140.5"/>
<path fill="none" stroke="#ffffff" stroke-width="2" d="M250.25,-143.25C314.25,-143.25 330.25,-142.5 394.25,-142.5"/>
<path fill="none" stroke="#000000" stroke-width="2" d="M250.25,-145.25C314.34,-145.25 330.34,-144.5 394.25,-144.5"/>
</g>
<!-- DISPLAY_OUT&#45;&#45;Segment buses -->
<g id="edge9" class="edge">
<title>DISPLAY_OUT:e&#45;&#45;Segment buses:w</title>
<path fill="none" stroke="#000000" stroke-width="2" d="M250.25,-113.75C313.92,-113.78 329.9,-111.03 394.25,-111"/>
<path fill="none" stroke="#ffffff" stroke-width="2" d="M250.25,-115.75C314.26,-115.75 330.24,-113 394.25,-113"/>
<path fill="none" stroke="#000000" stroke-width="2" d="M250.25,-117.75C314.6,-117.72 330.58,-114.97 394.25,-115"/>
</g>
<!-- DISPLAY_OUT&#45;&#45;Segment buses -->
<g id="edge11" class="edge">
<title>DISPLAY_OUT:e&#45;&#45;Segment buses:w</title>
<path fill="none" stroke="#000000" stroke-width="2" d="M250.25,-86.25C313.71,-86.33 329.64,-81.58 394.25,-81.5"/>
<path fill="none" stroke="#ffffff" stroke-width="2" d="M250.25,-88.25C314.28,-88.25 330.22,-83.5 394.25,-83.5"/>
<path fill="none" stroke="#000000" stroke-width="2" d="M250.25,-90.25C314.86,-90.17 330.79,-85.42 394.25,-85.5"/>
</g>
<!-- DISPLAY_OUT&#45;&#45;Segment buses -->
<g id="edge13" class="edge">
<title>DISPLAY_OUT:e&#45;&#45;Segment buses:w</title>
<path fill="none" stroke="#000000" stroke-width="2" d="M250.25,-58.75C313.54,-58.91 329.4,-52.16 394.25,-52"/>
<path fill="none" stroke="#ffffff" stroke-width="2" d="M250.25,-60.75C314.32,-60.75 330.18,-54 394.25,-54"/>
<path fill="none" stroke="#000000" stroke-width="2" d="M250.25,-62.75C315.1,-62.59 330.96,-55.84 394.25,-56"/>
</g>
<!-- LEDITRON_IN -->
<g id="node2" class="node">
<title>LEDITRON_IN</title>
<polygon fill="#ffffff" stroke="black" points="1232.5,-294.5 1004,-294.5 1004,-19.5 1232.5,-19.5 1232.5,-294.5"/>
<polygon fill="none" stroke="black" points="1004,-267 1004,-294.5 1232.5,-294.5 1232.5,-267 1004,-267"/>
<text xml:space="preserve" text-anchor="start" x="1076.25" y="-274.75" font-family="Segoe UI" font-size="14.00">LEDITRON_IN</text>
<polygon fill="none" stroke="black" points="1004,-239.5 1004,-267 1232.5,-267 1232.5,-239.5 1004,-239.5"/>
<text xml:space="preserve" text-anchor="start" x="1101.75" y="-247.25" font-family="Segoe UI" font-size="14.00">7&#45;pin</text>
<polygon fill="none" stroke="black" points="1004,-212 1004,-239.5 1086.38,-239.5 1086.38,-212 1004,-212"/>
<text xml:space="preserve" text-anchor="start" x="1041.44" y="-219.75" font-family="Segoe UI" font-size="14.00">1</text>
<polygon fill="none" stroke="black" points="1086.38,-212 1086.38,-239.5 1232.5,-239.5 1232.5,-212 1086.38,-212"/>
<text xml:space="preserve" text-anchor="start" x="1124.19" y="-219.75" font-family="Segoe UI" font-size="14.00">SEG_A_BUS</text>
<polygon fill="none" stroke="black" points="1004,-184.5 1004,-212 1086.38,-212 1086.38,-184.5 1004,-184.5"/>
<text xml:space="preserve" text-anchor="start" x="1041.44" y="-192.25" font-family="Segoe UI" font-size="14.00">2</text>
<polygon fill="none" stroke="black" points="1086.38,-184.5 1086.38,-212 1232.5,-212 1232.5,-184.5 1086.38,-184.5"/>
<text xml:space="preserve" text-anchor="start" x="1124.56" y="-192.25" font-family="Segoe UI" font-size="14.00">SEG_B_BUS</text>
<polygon fill="none" stroke="black" points="1004,-157 1004,-184.5 1086.38,-184.5 1086.38,-157 1004,-157"/>
<text xml:space="preserve" text-anchor="start" x="1041.44" y="-164.75" font-family="Segoe UI" font-size="14.00">3</text>
<polygon fill="none" stroke="black" points="1086.38,-157 1086.38,-184.5 1232.5,-184.5 1232.5,-157 1086.38,-157"/>
<text xml:space="preserve" text-anchor="start" x="1124.19" y="-164.75" font-family="Segoe UI" font-size="14.00">SEG_C_BUS</text>
<polygon fill="none" stroke="black" points="1004,-129.5 1004,-157 1086.38,-157 1086.38,-129.5 1004,-129.5"/>
<text xml:space="preserve" text-anchor="start" x="1041.44" y="-137.25" font-family="Segoe UI" font-size="14.00">4</text>
<polygon fill="none" stroke="black" points="1086.38,-129.5 1086.38,-157 1232.5,-157 1232.5,-129.5 1086.38,-129.5"/>
<text xml:space="preserve" text-anchor="start" x="1123.81" y="-137.25" font-family="Segoe UI" font-size="14.00">SEG_D_BUS</text>
<polygon fill="none" stroke="black" points="1004,-102 1004,-129.5 1086.38,-129.5 1086.38,-102 1004,-102"/>
<text xml:space="preserve" text-anchor="start" x="1041.44" y="-109.75" font-family="Segoe UI" font-size="14.00">5</text>
<polygon fill="none" stroke="black" points="1086.38,-102 1086.38,-129.5 1232.5,-129.5 1232.5,-102 1086.38,-102"/>
<text xml:space="preserve" text-anchor="start" x="1125.31" y="-109.75" font-family="Segoe UI" font-size="14.00">SEG_E_BUS</text>
<polygon fill="none" stroke="black" points="1004,-74.5 1004,-102 1086.38,-102 1086.38,-74.5 1004,-74.5"/>
<text xml:space="preserve" text-anchor="start" x="1041.44" y="-82.25" font-family="Segoe UI" font-size="14.00">6</text>
<polygon fill="none" stroke="black" points="1086.38,-74.5 1086.38,-102 1232.5,-102 1232.5,-74.5 1086.38,-74.5"/>
<text xml:space="preserve" text-anchor="start" x="1125.31" y="-82.25" font-family="Segoe UI" font-size="14.00">SEG_F_BUS</text>
<polygon fill="none" stroke="black" points="1004,-47 1004,-74.5 1086.38,-74.5 1086.38,-47 1004,-47"/>
<text xml:space="preserve" text-anchor="start" x="1041.44" y="-54.75" font-family="Segoe UI" font-size="14.00">7</text>
<polygon fill="none" stroke="black" points="1086.38,-47 1086.38,-74.5 1232.5,-74.5 1232.5,-47 1086.38,-47"/>
<text xml:space="preserve" text-anchor="start" x="1123.81" y="-54.75" font-family="Segoe UI" font-size="14.00">SEG_G_BUS</text>
<polygon fill="none" stroke="black" points="1004,-19.5 1004,-47 1232.5,-47 1232.5,-19.5 1004,-19.5"/>
<text xml:space="preserve" text-anchor="start" x="1008" y="-27.25" font-family="Segoe UI" font-size="14.00">Display bus board (segment inputs)</text>
</g>
<!-- Segment buses&#45;&#45;LEDITRON_IN -->
<g id="edge2" class="edge">
<title>Segment buses:e&#45;&#45;LEDITRON_IN:w</title>
<path fill="none" stroke="#000000" stroke-width="2" d="M860,-229C923.42,-229.1 939.33,-223.85 1004,-223.75"/>
<path fill="none" stroke="#ffffff" stroke-width="2" d="M860,-231C924.04,-231 939.96,-225.75 1004,-225.75"/>
<path fill="none" stroke="#000000" stroke-width="2" d="M860,-233C924.67,-232.9 940.58,-227.65 1004,-227.75"/>
</g>
<!-- Segment buses&#45;&#45;LEDITRON_IN -->
<g id="edge4" class="edge">
<title>Segment buses:e&#45;&#45;LEDITRON_IN:w</title>
<path fill="none" stroke="#000000" stroke-width="2" d="M860,-199.5C923.62,-199.54 939.58,-196.29 1004,-196.25"/>
<path fill="none" stroke="#ffffff" stroke-width="2" d="M860,-201.5C924.02,-201.5 939.98,-198.25 1004,-198.25"/>
<path fill="none" stroke="#000000" stroke-width="2" d="M860,-203.5C924.42,-203.46 940.38,-200.21 1004,-200.25"/>
</g>
<!-- Segment buses&#45;&#45;LEDITRON_IN -->
<g id="edge6" class="edge">
<title>Segment buses:e&#45;&#45;LEDITRON_IN:w</title>
<path fill="none" stroke="#000000" stroke-width="2" d="M860,-170C923.85,-170.01 939.84,-168.76 1004,-168.75"/>
<path fill="none" stroke="#ffffff" stroke-width="2" d="M860,-172C924,-172 940,-170.75 1004,-170.75"/>
<path fill="none" stroke="#000000" stroke-width="2" d="M860,-174C924.16,-173.99 940.15,-172.74 1004,-172.75"/>
</g>
<!-- Segment buses&#45;&#45;LEDITRON_IN -->
<g id="edge8" class="edge">
<title>Segment buses:e&#45;&#45;LEDITRON_IN:w</title>
<path fill="none" stroke="#000000" stroke-width="2" d="M860,-140.5C924.09,-140.5 940.09,-141.25 1004,-141.25"/>
<path fill="none" stroke="#ffffff" stroke-width="2" d="M860,-142.5C924,-142.5 940,-143.25 1004,-143.25"/>
<path fill="none" stroke="#000000" stroke-width="2" d="M860,-144.5C923.91,-144.5 939.91,-145.25 1004,-145.25"/>
</g>
<!-- Segment buses&#45;&#45;LEDITRON_IN -->
<g id="edge10" class="edge">
<title>Segment buses:e&#45;&#45;LEDITRON_IN:w</title>
<path fill="none" stroke="#000000" stroke-width="2" d="M860,-111C924.35,-111.03 940.33,-113.78 1004,-113.75"/>
<path fill="none" stroke="#ffffff" stroke-width="2" d="M860,-113C924.01,-113 939.99,-115.75 1004,-115.75"/>
<path fill="none" stroke="#000000" stroke-width="2" d="M860,-115C923.67,-114.97 939.65,-117.72 1004,-117.75"/>
</g>
<!-- Segment buses&#45;&#45;LEDITRON_IN -->
<g id="edge12" class="edge">
<title>Segment buses:e&#45;&#45;LEDITRON_IN:w</title>
<path fill="none" stroke="#000000" stroke-width="2" d="M860,-81.5C924.61,-81.58 940.54,-86.33 1004,-86.25"/>
<path fill="none" stroke="#ffffff" stroke-width="2" d="M860,-83.5C924.03,-83.5 939.97,-88.25 1004,-88.25"/>
<path fill="none" stroke="#000000" stroke-width="2" d="M860,-85.5C923.46,-85.42 939.39,-90.17 1004,-90.25"/>
</g>
<!-- Segment buses&#45;&#45;LEDITRON_IN -->
<g id="edge14" class="edge">
<title>Segment buses:e&#45;&#45;LEDITRON_IN:w</title>
<path fill="none" stroke="#000000" stroke-width="2" d="M860,-52C924.85,-52.16 940.71,-58.91 1004,-58.75"/>
<path fill="none" stroke="#ffffff" stroke-width="2" d="M860,-54C924.07,-54 939.93,-60.75 1004,-60.75"/>
<path fill="none" stroke="#000000" stroke-width="2" d="M860,-56C923.29,-55.84 939.15,-62.59 1004,-62.75"/>
</g>
</g>
</svg>
