<?xml version="1.0" encoding="UTF-8" standalone="no"?>
<!DOCTYPE svg PUBLIC "-//W3C//DTD SVG 1.1//EN"
 "http://www.w3.org/Graphics/SVG/1.1/DTD/svg11.dtd">
<!-- Generated by graphviz version 16.1.0 (20260904.0139)
 -->
<!-- Pages: 1 -->
<svg width="890pt" height="197pt"
 viewBox="0.00 0.00 890.00 197.00" xmlns="http://www.w3.org/2000/svg" xmlns:xlink="http://www.w3.org/1999/xlink">
<g id="graph0" class="graph" transform="scale(1 1) rotate(0) translate(4 192.5)">
<polygon fill="#ffffff" stroke="none" points="-4,4 -4,-192.5 886.25,-192.5 886.25,4 -4,4"/>
<!-- U35 -->
<g id="node1" class="node">
<title>U35</title>
<polygon fill="#ffffff" stroke="black" points="275.5,-152 0,-152 0,-14.5 275.5,-14.5 275.5,-152"/>
<polygon fill="none" stroke="black" points="0,-124.5 0,-152 275.5,-152 275.5,-124.5 0,-124.5"/>
<text xml:space="preserve" text-anchor="start" x="125.38" y="-132.25" font-family="Segoe UI" font-size="14.00">U35</text>
<polygon fill="none" stroke="black" points="0,-97 0,-124.5 275.5,-124.5 275.5,-97 0,-97"/>
<text xml:space="preserve" text-anchor="start" x="121.25" y="-104.75" font-family="Segoe UI" font-size="14.00">2&#45;pin</text>
<polygon fill="none" stroke="black" points="0,-69.5 0,-97 260,-97 260,-69.5 0,-69.5"/>
<text xml:space="preserve" text-anchor="start" x="55.75" y="-77.25" font-family="Segoe UI" font-size="14.00">from the 33 Ω (5 V side)</text>
<polygon fill="none" stroke="black" points="260,-69.5 260,-97 275.5,-97 275.5,-69.5 260,-69.5"/>
<text xml:space="preserve" text-anchor="start" x="264" y="-77.25" font-family="Segoe UI" font-size="14.00">1</text>
<polygon fill="none" stroke="black" points="0,-42 0,-69.5 260,-69.5 260,-42 0,-42"/>
<text xml:space="preserve" text-anchor="start" x="4" y="-49.75" font-family="Segoe UI" font-size="14.00">to the 1.5 kΩ variable resistor (GND side)</text>
<polygon fill="none" stroke="black" points="260,-42 260,-69.5 275.5,-69.5 275.5,-42 260,-42"/>
<text xml:space="preserve" text-anchor="start" x="264" y="-49.75" font-family="Segoe UI" font-size="14.00">2</text>
<polygon fill="none" stroke="black" points="0,-14.5 0,-42 275.5,-42 275.5,-14.5 0,-14.5"/>
<text xml:space="preserve" text-anchor="start" x="38.38" y="-22.25" font-family="Segoe UI" font-size="14.00">Display bus board, colon output</text>
</g>
<!-- To the colon LED -->
<g id="node2" class="node">
<title>To the colon LED</title>
<polygon fill="#ffffff" stroke="black" points="882.25,-188.5 419.5,-188.5 419.5,0 882.25,0 882.25,-188.5"/>
<polygon fill="none" stroke="black" points="419.5,-161 419.5,-188.5 882.25,-188.5 882.25,-161 419.5,-161"/>
<text xml:space="preserve" text-anchor="start" x="598.75" y="-168.75" font-family="Segoe UI" font-size="14.00">To the colon LED</text>
<polygon fill="none" stroke="black" points="419.5,-133.5 419.5,-161 882.25,-161 882.25,-133.5 419.5,-133.5"/>
<text xml:space="preserve" text-anchor="start" x="643.75" y="-141.25" font-family="Segoe UI" font-size="14.00">2x</text>
<text xml:space="preserve" text-anchor="start" x="564.75" y="-115.75" font-family="Segoe UI" font-size="14.00"> </text>
<text xml:space="preserve" text-anchor="start" x="473.25" y="-92.25" font-family="Segoe UI" font-size="14.00">U35:1:from the 33 Ω (5 V side)</text>
<text xml:space="preserve" text-anchor="start" x="721.38" y="-92.25" font-family="Segoe UI" font-size="14.00"> &#160;&#160;&#160;&#160;1:colon LED anode &#160;&#160;&#160;</text>
<polygon fill="#000000" stroke="none" points="419.5,-84.5 419.5,-86.5 882.25,-86.5 882.25,-84.5 419.5,-84.5"/>
<polygon fill="#ffffff" stroke="none" points="419.5,-82.5 419.5,-84.5 882.25,-84.5 882.25,-82.5 419.5,-82.5"/>
<polygon fill="#000000" stroke="none" points="419.5,-80.5 419.5,-82.5 882.25,-82.5 882.25,-80.5 419.5,-80.5"/>
<text xml:space="preserve" text-anchor="start" x="421.5" y="-62.75" font-family="Segoe UI" font-size="14.00">U35:2:to the 1.5 kΩ variable resistor (GND side)</text>
<text xml:space="preserve" text-anchor="start" x="715.75" y="-62.75" font-family="Segoe UI" font-size="14.00"> &#160;&#160;&#160;&#160;2:colon LED cathode &#160;&#160;&#160;</text>
<polygon fill="#000000" stroke="none" points="419.5,-55 419.5,-57 882.25,-57 882.25,-55 419.5,-55"/>
<polygon fill="#ffffff" stroke="none" points="419.5,-53 419.5,-55 882.25,-55 882.25,-53 419.5,-53"/>
<polygon fill="#000000" stroke="none" points="419.5,-51 419.5,-53 882.25,-53 882.25,-51 419.5,-51"/>
<text xml:space="preserve" text-anchor="start" x="564.75" y="-33.25" font-family="Segoe UI" font-size="14.00"> </text>
<polygon fill="none" stroke="black" points="419.5,0 419.5,-27.5 882.25,-27.5 882.25,0 419.5,0"/>
<text xml:space="preserve" text-anchor="start" x="577.38" y="-7.75" font-family="Segoe UI" font-size="14.00">colon end not recorded</text>
</g>
<!-- U35&#45;&#45;To the colon LED -->
<g id="edge1" class="edge">
<title>U35:e&#45;&#45;To the colon LED:w</title>
<path fill="none" stroke="#000000" stroke-width="2" d="M275.5,-81.25C339.53,-81.25 355.53,-81.5 419.5,-81.5"/>
<path fill="none" stroke="#ffffff" stroke-width="2" d="M275.5,-83.25C339.5,-83.25 355.5,-83.5 419.5,-83.5"/>
<path fill="none" stroke="#000000" stroke-width="2" d="M275.5,-85.25C339.47,-85.25 355.47,-85.5 419.5,-85.5"/>
</g>
<!-- U35&#45;&#45;To the colon LED -->
<g id="edge2" class="edge">
<title>U35:e&#45;&#45;To the colon LED:w</title>
<path fill="none" stroke="#000000" stroke-width="2" d="M275.5,-53.75C339.29,-53.76 355.28,-52.01 419.5,-52"/>
<path fill="none" stroke="#ffffff" stroke-width="2" d="M275.5,-55.75C339.5,-55.75 355.5,-54 419.5,-54"/>
<path fill="none" stroke="#000000" stroke-width="2" d="M275.5,-57.75C339.72,-57.74 355.71,-55.99 419.5,-56"/>
</g>
</g>
</svg>
