<?xml version="1.0" encoding="UTF-8" standalone="no"?>
<!DOCTYPE svg PUBLIC "-//W3C//DTD SVG 1.1//EN"
 "http://www.w3.org/Graphics/SVG/1.1/DTD/svg11.dtd">
<!-- Generated by graphviz version 16.1.0 (20260904.0139)
 -->
<!-- Pages: 1 -->
<svg width="1010pt" height="256pt"
 viewBox="0.00 0.00 1010.00 256.00" xmlns="http://www.w3.org/2000/svg" xmlns:xlink="http://www.w3.org/1999/xlink">
<g id="graph0" class="graph" transform="scale(1 1) rotate(0) translate(4 251.5)">
<polygon fill="#ffffff" stroke="none" points="-4,4 -4,-251.5 1006.25,-251.5 1006.25,4 -4,4"/>
<!-- A32_BT_LED -->
<g id="node1" class="node">
<title>A32_BT_LED</title>
<polygon fill="#ffffff" stroke="black" points="134.75,-209 0,-209 0,-16.5 134.75,-16.5 134.75,-209"/>
<polygon fill="none" stroke="black" points="0,-181.5 0,-209 134.75,-209 134.75,-181.5 0,-181.5"/>
<text xml:space="preserve" text-anchor="start" x="30.25" y="-189.25" font-family="Segoe UI" font-size="14.00">A32_BT_LED</text>
<polygon fill="none" stroke="black" points="0,-154 0,-181.5 134.75,-181.5 134.75,-154 0,-154"/>
<text xml:space="preserve" text-anchor="start" x="50.88" y="-161.75" font-family="Segoe UI" font-size="14.00">4&#45;pin</text>
<polygon fill="none" stroke="black" points="0,-126.5 0,-154 85.75,-154 85.75,-126.5 0,-126.5"/>
<text xml:space="preserve" text-anchor="start" x="23.38" y="-134.25" font-family="Segoe UI" font-size="14.00">A_3V3</text>
<polygon fill="none" stroke="black" points="85.75,-126.5 85.75,-154 134.75,-154 134.75,-126.5 85.75,-126.5"/>
<text xml:space="preserve" text-anchor="start" x="106.5" y="-134.25" font-family="Segoe UI" font-size="14.00">1</text>
<polygon fill="none" stroke="black" points="0,-99 0,-126.5 85.75,-126.5 85.75,-99 0,-99"/>
<text xml:space="preserve" text-anchor="start" x="20.75" y="-106.75" font-family="Segoe UI" font-size="14.00">A_IO33</text>
<polygon fill="none" stroke="black" points="85.75,-99 85.75,-126.5 134.75,-126.5 134.75,-99 85.75,-99"/>
<text xml:space="preserve" text-anchor="start" x="106.5" y="-106.75" font-family="Segoe UI" font-size="14.00">2</text>
<polygon fill="none" stroke="black" points="0,-71.5 0,-99 85.75,-99 85.75,-71.5 0,-71.5"/>
<text xml:space="preserve" text-anchor="start" x="27.88" y="-79.25" font-family="Segoe UI" font-size="14.00">GND</text>
<polygon fill="none" stroke="black" points="85.75,-71.5 85.75,-99 134.75,-99 134.75,-71.5 85.75,-71.5"/>
<text xml:space="preserve" text-anchor="start" x="106.5" y="-79.25" font-family="Segoe UI" font-size="14.00">3</text>
<polygon fill="none" stroke="black" points="0,-44 0,-71.5 85.75,-71.5 85.75,-44 0,-44"/>
<text xml:space="preserve" text-anchor="start" x="20.75" y="-51.75" font-family="Segoe UI" font-size="14.00">A_IO25</text>
<polygon fill="none" stroke="black" points="85.75,-44 85.75,-71.5 134.75,-71.5 134.75,-44 85.75,-44"/>
<text xml:space="preserve" text-anchor="start" x="106.5" y="-51.75" font-family="Segoe UI" font-size="14.00">4</text>
<polygon fill="none" stroke="black" points="0,-16.5 0,-44 134.75,-44 134.75,-16.5 0,-16.5"/>
<text xml:space="preserve" text-anchor="start" x="4" y="-24.25" font-family="Segoe UI" font-size="14.00">Audio board (ESP32)</text>
</g>
<!-- Bluetooth button and LED -->
<g id="node3" class="node">
<title>Bluetooth button and LED</title>
<polygon fill="#ffffff" stroke="black" points="613.25,-247.5 278.75,-247.5 278.75,0 613.25,0 613.25,-247.5"/>
<polygon fill="none" stroke="black" points="278.75,-220 278.75,-247.5 613.25,-247.5 613.25,-220 278.75,-220"/>
<text xml:space="preserve" text-anchor="start" x="365.38" y="-227.75" font-family="Segoe UI" font-size="14.00">Bluetooth button and LED</text>
<polygon fill="none" stroke="black" points="278.75,-192.5 278.75,-220 613.25,-220 613.25,-192.5 278.75,-192.5"/>
<text xml:space="preserve" text-anchor="start" x="438.88" y="-200.25" font-family="Segoe UI" font-size="14.00">4x</text>
<text xml:space="preserve" text-anchor="start" x="344.88" y="-174.75" font-family="Segoe UI" font-size="14.00"> </text>
<text xml:space="preserve" text-anchor="start" x="283.38" y="-151.25" font-family="Segoe UI" font-size="14.00">A32_BT_LED:1:A_3V3</text>
<text xml:space="preserve" text-anchor="start" x="419.38" y="-151.25" font-family="Segoe UI" font-size="14.00"> &#160;&#160;&#160;&#160;1:A_3V3 &#160;&#160;&#160;</text>
<text xml:space="preserve" text-anchor="start" x="511.88" y="-151.25" font-family="Segoe UI" font-size="14.00">BT_LED:2:A_3V3</text>
<polygon fill="#000000" stroke="none" points="278.75,-143.5 278.75,-145.5 613.25,-145.5 613.25,-143.5 278.75,-143.5"/>
<polygon fill="#ffffff" stroke="none" points="278.75,-141.5 278.75,-143.5 613.25,-143.5 613.25,-141.5 278.75,-141.5"/>
<polygon fill="#000000" stroke="none" points="278.75,-139.5 278.75,-141.5 613.25,-141.5 613.25,-139.5 278.75,-139.5"/>
<text xml:space="preserve" text-anchor="start" x="280.75" y="-121.75" font-family="Segoe UI" font-size="14.00">A32_BT_LED:2:A_IO33</text>
<text xml:space="preserve" text-anchor="start" x="416.75" y="-121.75" font-family="Segoe UI" font-size="14.00"> &#160;&#160;&#160;&#160;2:A_IO33 &#160;&#160;&#160;</text>
<text xml:space="preserve" text-anchor="start" x="509.25" y="-121.75" font-family="Segoe UI" font-size="14.00">BT_LED:1:A_IO33</text>
<polygon fill="#000000" stroke="none" points="278.75,-114 278.75,-116 613.25,-116 613.25,-114 278.75,-114"/>
<polygon fill="#ffffff" stroke="none" points="278.75,-112 278.75,-114 613.25,-114 613.25,-112 278.75,-112"/>
<polygon fill="#000000" stroke="none" points="278.75,-110 278.75,-112 613.25,-112 613.25,-110 278.75,-110"/>
<text xml:space="preserve" text-anchor="start" x="287.88" y="-92.25" font-family="Segoe UI" font-size="14.00">A32_BT_LED:3:GND</text>
<text xml:space="preserve" text-anchor="start" x="423.88" y="-92.25" font-family="Segoe UI" font-size="14.00"> &#160;&#160;&#160;&#160;3:GND &#160;&#160;&#160;</text>
<text xml:space="preserve" text-anchor="start" x="516.38" y="-92.25" font-family="Segoe UI" font-size="14.00">BT_LED:4:GND</text>
<polygon fill="#000000" stroke="none" points="278.75,-84.5 278.75,-86.5 613.25,-86.5 613.25,-84.5 278.75,-84.5"/>
<polygon fill="#ffffff" stroke="none" points="278.75,-82.5 278.75,-84.5 613.25,-84.5 613.25,-82.5 278.75,-82.5"/>
<polygon fill="#000000" stroke="none" points="278.75,-80.5 278.75,-82.5 613.25,-82.5 613.25,-80.5 278.75,-80.5"/>
<text xml:space="preserve" text-anchor="start" x="280.75" y="-62.75" font-family="Segoe UI" font-size="14.00">A32_BT_LED:4:A_IO25</text>
<text xml:space="preserve" text-anchor="start" x="416.75" y="-62.75" font-family="Segoe UI" font-size="14.00"> &#160;&#160;&#160;&#160;4:A_IO25 &#160;&#160;&#160;</text>
<text xml:space="preserve" text-anchor="start" x="509.25" y="-62.75" font-family="Segoe UI" font-size="14.00">BT_LED:3:A_IO25</text>
<polygon fill="#000000" stroke="none" points="278.75,-55 278.75,-57 613.25,-57 613.25,-55 278.75,-55"/>
<polygon fill="#ffffff" stroke="none" points="278.75,-53 278.75,-55 613.25,-55 613.25,-53 278.75,-53"/>
<polygon fill="#000000" stroke="none" points="278.75,-51 278.75,-53 613.25,-53 613.25,-51 278.75,-51"/>
<text xml:space="preserve" text-anchor="start" x="344.88" y="-33.25" font-family="Segoe UI" font-size="14.00"> </text>
<polygon fill="none" stroke="black" points="278.75,0 278.75,-27.5 613.25,-27.5 613.25,0 278.75,0"/>
<text xml:space="preserve" text-anchor="start" x="417.12" y="-7.75" font-family="Segoe UI" font-size="14.00">no shield</text>
</g>
<!-- A32_BT_LED&#45;&#45;Bluetooth button and LED -->
<g id="edge1" class="edge">
<title>A32_BT_LED:e&#45;&#45;Bluetooth button and LED:w</title>
<path fill="none" stroke="#000000" stroke-width="2" d="M134.75,-138.25C199.04,-138.27 215.02,-140.52 278.75,-140.5"/>
<path fill="none" stroke="#ffffff" stroke-width="2" d="M134.75,-140.25C198.76,-140.25 214.74,-142.5 278.75,-142.5"/>
<path fill="none" stroke="#000000" stroke-width="2" d="M134.75,-142.25C198.48,-142.23 214.46,-144.48 278.75,-144.5"/>
</g>
<!-- A32_BT_LED&#45;&#45;Bluetooth button and LED -->
<g id="edge3" class="edge">
<title>A32_BT_LED:e&#45;&#45;Bluetooth button and LED:w</title>
<path fill="none" stroke="#000000" stroke-width="2" d="M134.75,-110.75C198.78,-110.75 214.78,-111 278.75,-111"/>
<path fill="none" stroke="#ffffff" stroke-width="2" d="M134.75,-112.75C198.75,-112.75 214.75,-113 278.75,-113"/>
<path fill="none" stroke="#000000" stroke-width="2" d="M134.75,-114.75C198.72,-114.75 214.72,-115 278.75,-115"/>
</g>
<!-- A32_BT_LED&#45;&#45;Bluetooth button and LED -->
<g id="edge5" class="edge">
<title>A32_BT_LED:e&#45;&#45;Bluetooth button and LED:w</title>
<path fill="none" stroke="#000000" stroke-width="2" d="M134.75,-83.25C198.54,-83.26 214.53,-81.51 278.75,-81.5"/>
<path fill="none" stroke="#ffffff" stroke-width="2" d="M134.75,-85.25C198.75,-85.25 214.75,-83.5 278.75,-83.5"/>
<path fill="none" stroke="#000000" stroke-width="2" d="M134.75,-87.25C198.97,-87.24 214.96,-85.49 278.75,-85.5"/>
</g>
<!-- A32_BT_LED&#45;&#45;Bluetooth button and LED -->
<g id="edge7" class="edge">
<title>A32_BT_LED:e&#45;&#45;Bluetooth button and LED:w</title>
<path fill="none" stroke="#000000" stroke-width="2" d="M134.75,-55.75C198.31,-55.8 214.27,-52.05 278.75,-52"/>
<path fill="none" stroke="#ffffff" stroke-width="2" d="M134.75,-57.75C198.77,-57.75 214.73,-54 278.75,-54"/>
<path fill="none" stroke="#000000" stroke-width="2" d="M134.75,-59.75C199.23,-59.7 215.19,-55.95 278.75,-56"/>
</g>
<!-- BT_LED -->
<g id="node2" class="node">
<title>BT_LED</title>
<polygon fill="#ffffff" stroke="black" points="1002.25,-208 757.25,-208 757.25,-15.5 1002.25,-15.5 1002.25,-208"/>
<polygon fill="none" stroke="black" points="757.25,-180.5 757.25,-208 1002.25,-208 1002.25,-180.5 757.25,-180.5"/>
<text xml:space="preserve" text-anchor="start" x="857.62" y="-188.25" font-family="Segoe UI" font-size="14.00">BT_LED</text>
<polygon fill="none" stroke="black" points="757.25,-153 757.25,-180.5 1002.25,-180.5 1002.25,-153 757.25,-153"/>
<text xml:space="preserve" text-anchor="start" x="863.25" y="-160.75" font-family="Segoe UI" font-size="14.00">4&#45;pin</text>
<polygon fill="none" stroke="black" points="757.25,-125.5 757.25,-153 861.38,-153 861.38,-125.5 757.25,-125.5"/>
<text xml:space="preserve" text-anchor="start" x="805.56" y="-133.25" font-family="Segoe UI" font-size="14.00">1</text>
<polygon fill="none" stroke="black" points="861.38,-125.5 861.38,-153 1002.25,-153 1002.25,-125.5 861.38,-125.5"/>
<text xml:space="preserve" text-anchor="start" x="909.69" y="-133.25" font-family="Segoe UI" font-size="14.00">A_IO33</text>
<polygon fill="none" stroke="black" points="757.25,-98 757.25,-125.5 861.38,-125.5 861.38,-98 757.25,-98"/>
<text xml:space="preserve" text-anchor="start" x="805.56" y="-105.75" font-family="Segoe UI" font-size="14.00">2</text>
<polygon fill="none" stroke="black" points="861.38,-98 861.38,-125.5 1002.25,-125.5 1002.25,-98 861.38,-98"/>
<text xml:space="preserve" text-anchor="start" x="912.31" y="-105.75" font-family="Segoe UI" font-size="14.00">A_3V3</text>
<polygon fill="none" stroke="black" points="757.25,-70.5 757.25,-98 861.38,-98 861.38,-70.5 757.25,-70.5"/>
<text xml:space="preserve" text-anchor="start" x="805.56" y="-78.25" font-family="Segoe UI" font-size="14.00">3</text>
<polygon fill="none" stroke="black" points="861.38,-70.5 861.38,-98 1002.25,-98 1002.25,-70.5 861.38,-70.5"/>
<text xml:space="preserve" text-anchor="start" x="909.69" y="-78.25" font-family="Segoe UI" font-size="14.00">A_IO25</text>
<polygon fill="none" stroke="black" points="757.25,-43 757.25,-70.5 861.38,-70.5 861.38,-43 757.25,-43"/>
<text xml:space="preserve" text-anchor="start" x="805.56" y="-50.75" font-family="Segoe UI" font-size="14.00">4</text>
<polygon fill="none" stroke="black" points="861.38,-43 861.38,-70.5 1002.25,-70.5 1002.25,-43 861.38,-43"/>
<text xml:space="preserve" text-anchor="start" x="916.81" y="-50.75" font-family="Segoe UI" font-size="14.00">GND</text>
<polygon fill="none" stroke="black" points="757.25,-15.5 757.25,-43 1002.25,-43 1002.25,-15.5 757.25,-15.5"/>
<text xml:space="preserve" text-anchor="start" x="761.25" y="-23.25" font-family="Segoe UI" font-size="14.00">Front&#45;panel Bluetooth button and LED</text>
</g>
<!-- Bluetooth button and LED&#45;&#45;BT_LED -->
<g id="edge2" class="edge">
<title>Bluetooth button and LED:e&#45;&#45;BT_LED:w</title>
<path fill="none" stroke="#000000" stroke-width="2" d="M613.25,-140.5C676.85,-141.72 689.97,-110.97 757.25,-109.75"/>
<path fill="none" stroke="#ffffff" stroke-width="2" d="M613.25,-142.5C678.69,-142.5 691.81,-111.75 757.25,-111.75"/>
<path fill="none" stroke="#000000" stroke-width="2" d="M613.25,-144.5C680.53,-143.28 693.65,-112.53 757.25,-113.75"/>
</g>
<!-- Bluetooth button and LED&#45;&#45;BT_LED -->
<g id="edge4" class="edge">
<title>Bluetooth button and LED:e&#45;&#45;BT_LED:w</title>
<path fill="none" stroke="#000000" stroke-width="2" d="M613.25,-111C680.07,-112.06 693.96,-138.31 757.25,-137.25"/>
<path fill="none" stroke="#ffffff" stroke-width="2" d="M613.25,-113C678.3,-113 692.2,-139.25 757.25,-139.25"/>
<path fill="none" stroke="#000000" stroke-width="2" d="M613.25,-115C676.54,-113.94 690.43,-140.19 757.25,-141.25"/>
</g>
<!-- Bluetooth button and LED&#45;&#45;BT_LED -->
<g id="edge6" class="edge">
<title>Bluetooth button and LED:e&#45;&#45;BT_LED:w</title>
<path fill="none" stroke="#000000" stroke-width="2" d="M613.25,-81.5C676.57,-82.58 690.38,-55.83 757.25,-54.75"/>
<path fill="none" stroke="#ffffff" stroke-width="2" d="M613.25,-83.5C678.34,-83.5 692.16,-56.75 757.25,-56.75"/>
<path fill="none" stroke="#000000" stroke-width="2" d="M613.25,-85.5C680.12,-84.42 693.93,-57.67 757.25,-58.75"/>
</g>
<!-- Bluetooth button and LED&#45;&#45;BT_LED -->
<g id="edge8" class="edge">
<title>Bluetooth button and LED:e&#45;&#45;BT_LED:w</title>
<path fill="none" stroke="#000000" stroke-width="2" d="M613.25,-52C680.48,-53.2 693.69,-83.45 757.25,-82.25"/>
<path fill="none" stroke="#ffffff" stroke-width="2" d="M613.25,-54C678.65,-54 691.85,-84.25 757.25,-84.25"/>
<path fill="none" stroke="#000000" stroke-width="2" d="M613.25,-56C676.81,-54.8 690.02,-85.05 757.25,-86.25"/>
</g>
</g>
</svg>
