<?xml version="1.0" encoding="UTF-8" standalone="no"?>
<!DOCTYPE svg PUBLIC "-//W3C//DTD SVG 1.1//EN"
 "http://www.w3.org/Graphics/SVG/1.1/DTD/svg11.dtd">
<!-- Generated by graphviz version 16.1.0 (20260904.0139)
 -->
<!-- Title: conv Pages: 1 -->
<svg width="537pt" height="593pt"
 viewBox="0.00 0.00 537.00 593.00" xmlns="http://www.w3.org/2000/svg" xmlns:xlink="http://www.w3.org/1999/xlink">
<g id="graph0" class="graph" transform="scale(1 1) rotate(0) translate(4 588.8)">
<title>conv</title>
<polygon fill="white" stroke="none" points="-4,4 -4,-588.8 532.98,-588.8 532.98,4 -4,4"/>
<!-- swin -->
<g id="node1" class="node">
<title>swin</title>
<path fill="none" stroke="black" d="M184.14,-584.8C184.14,-584.8 79.86,-584.8 79.86,-584.8 73.86,-584.8 67.86,-578.8 67.86,-572.8 67.86,-572.8 67.86,-504.1 67.86,-504.1 67.86,-498.1 73.86,-492.1 79.86,-492.1 79.86,-492.1 184.14,-492.1 184.14,-492.1 190.14,-492.1 196.14,-498.1 196.14,-504.1 196.14,-504.1 196.14,-572.8 196.14,-572.8 196.14,-578.8 190.14,-584.8 184.14,-584.8"/>
<text xml:space="preserve" text-anchor="middle" x="132" y="-571.7" font-family="Segoe UI" font-size="10.00">SW input</text>
<text xml:space="preserve" text-anchor="middle" x="132" y="-557.45" font-family="Segoe UI" font-size="10.00">coupling capacitor (C21),</text>
<text xml:space="preserve" text-anchor="middle" x="132" y="-543.2" font-family="Segoe UI" font-size="10.00">J2 absent, to the</text>
<text xml:space="preserve" text-anchor="middle" x="132" y="-528.95" font-family="Segoe UI" font-size="10.00">SW antenna coil (L6);</text>
<text xml:space="preserve" text-anchor="middle" x="132" y="-514.7" font-family="Segoe UI" font-size="10.00">SW RF point, trimmer</text>
<text xml:space="preserve" text-anchor="middle" x="132" y="-500.45" font-family="Segoe UI" font-size="10.00">(C22A) to chassis</text>
</g>
<!-- s1c -->
<g id="node3" class="node">
<title>s1c</title>
<path fill="none" stroke="black" d="M297.51,-455.35C297.51,-455.35 114.49,-455.35 114.49,-455.35 108.49,-455.35 102.48,-449.35 102.48,-443.35 102.48,-443.35 102.48,-417.4 102.48,-417.4 102.48,-411.4 108.48,-405.4 114.48,-405.4 114.48,-405.4 297.51,-405.4 297.51,-405.4 303.51,-405.4 309.51,-411.4 309.51,-417.4 309.51,-417.4 309.51,-443.35 309.51,-443.35 309.51,-449.35 303.51,-455.35 297.51,-455.35"/>
<text xml:space="preserve" text-anchor="middle" x="206" y="-442.25" font-family="Segoe UI" font-size="10.00">Mode switch, RF unit (S1C)</text>
<text xml:space="preserve" text-anchor="middle" x="206" y="-428" font-family="Segoe UI" font-size="10.00">common on the signal grid, with the</text>
<text xml:space="preserve" text-anchor="middle" x="206" y="-413.75" font-family="Segoe UI" font-size="10.00">AM/SW RF tuning section (VC3) to chassis</text>
</g>
<!-- swin&#45;&gt;s1c -->
<g id="edge1" class="edge">
<title>swin&#45;&gt;s1c</title>
<path fill="none" stroke="black" d="M163.81,-491.85C170.74,-481.92 177.92,-471.63 184.35,-462.41"/>
<polygon fill="black" stroke="black" points="186.24,-463.99 188.23,-456.84 182.22,-461.18 186.24,-463.99"/>
<text xml:space="preserve" text-anchor="middle" x="186.33" y="-471.55" font-family="Segoe UI" font-size="9.00">SW</text>
</g>
<!-- amin -->
<g id="node2" class="node">
<title>amin</title>
<path fill="none" stroke="black" d="M330.26,-577.68C330.26,-577.68 229.74,-577.68 229.74,-577.68 223.74,-577.68 217.74,-571.68 217.74,-565.68 217.74,-565.68 217.74,-511.23 217.74,-511.23 217.74,-505.23 223.74,-499.23 229.74,-499.23 229.74,-499.23 330.26,-499.23 330.26,-499.23 336.26,-499.23 342.26,-505.23 342.26,-511.23 342.26,-511.23 342.26,-565.68 342.26,-565.68 342.26,-571.68 336.26,-577.68 330.26,-577.68"/>
<text xml:space="preserve" text-anchor="middle" x="280" y="-564.58" font-family="Segoe UI" font-size="10.00">AM input: loopstick (L7)</text>
<text xml:space="preserve" text-anchor="middle" x="280" y="-550.33" font-family="Segoe UI" font-size="10.00">AM RF point;</text>
<text xml:space="preserve" text-anchor="middle" x="280" y="-536.08" font-family="Segoe UI" font-size="10.00">trimmer (C23A) across;</text>
<text xml:space="preserve" text-anchor="middle" x="280" y="-521.83" font-family="Segoe UI" font-size="10.00">other end on the</text>
<text xml:space="preserve" text-anchor="middle" x="280" y="-507.58" font-family="Segoe UI" font-size="10.00">AVC line (13.6)</text>
</g>
<!-- amin&#45;&gt;s1c -->
<g id="edge2" class="edge">
<title>amin&#45;&gt;s1c</title>
<path fill="none" stroke="black" d="M253.07,-498.85C244.72,-486.88 235.63,-473.85 227.69,-462.46"/>
<polygon fill="black" stroke="black" points="229.78,-461.19 223.77,-456.85 225.76,-463.99 229.78,-461.19"/>
<text xml:space="preserve" text-anchor="middle" x="245.69" y="-471.55" font-family="Segoe UI" font-size="9.00">AM</text>
</g>
<!-- v3 -->
<g id="node4" class="node">
<title>v3</title>
<path fill="#e3eefc" stroke="black" d="M271.26,-368.65C271.26,-368.65 140.74,-368.65 140.74,-368.65 134.74,-368.65 128.74,-362.65 128.74,-356.65 128.74,-356.65 128.74,-344.65 128.74,-344.65 128.74,-338.65 134.74,-332.65 140.74,-332.65 140.74,-332.65 271.26,-332.65 271.26,-332.65 277.26,-332.65 283.26,-338.65 283.26,-344.65 283.26,-344.65 283.26,-356.65 283.26,-356.65 283.26,-362.65 277.26,-368.65 271.26,-368.65"/>
<text xml:space="preserve" text-anchor="middle" x="206" y="-355.4" font-family="Segoe UI" font-size="10.00">Converter: mixer and oscillator</text>
<text xml:space="preserve" text-anchor="middle" x="206" y="-341.15" font-family="Segoe UI" font-size="10.00">V3, 12BE6</text>
</g>
<!-- s1c&#45;&gt;v3 -->
<g id="edge3" class="edge">
<title>s1c&#45;&gt;v3</title>
<path fill="none" stroke="black" d="M206,-405.21C206,-396.29 206,-386.17 206,-377.14"/>
<polygon fill="black" stroke="black" points="208.45,-377.41 206,-370.41 203.55,-377.41 208.45,-377.41"/>
<text xml:space="preserve" text-anchor="middle" x="238.62" y="-384.85" font-family="Segoe UI" font-size="9.00">signal grid, pin 7</text>
</g>
<!-- l11 -->
<g id="node6" class="node">
<title>l11</title>
<text xml:space="preserve" text-anchor="middle" x="150" y="-250.17" font-family="Segoe UI" font-size="10.00">First AM IF transformer (L11)</text>
<text xml:space="preserve" text-anchor="middle" x="150" y="-235.92" font-family="Segoe UI" font-size="10.00">455 kHz (13.6)</text>
</g>
<!-- v3&#45;&gt;l11 -->
<g id="edge5" class="edge">
<title>v3&#45;&gt;l11</title>
<path fill="none" stroke="black" d="M196.75,-332.6C187.58,-315.69 173.43,-289.62 163.1,-270.58"/>
<polygon fill="black" stroke="black" points="165.29,-269.47 159.8,-264.48 160.98,-271.8 165.29,-269.47"/>
<text xml:space="preserve" text-anchor="middle" x="211.2" y="-299.35" font-family="Segoe UI" font-size="9.00">plate, pin 5</text>
</g>
<!-- otp -->
<g id="node7" class="node">
<title>otp</title>
<path fill="none" stroke="black" d="M360.76,-270.4C360.76,-270.4 257.24,-270.4 257.24,-270.4 251.23,-270.4 245.23,-264.4 245.23,-258.4 245.23,-258.4 245.23,-232.45 245.23,-232.45 245.23,-226.45 251.23,-220.45 257.24,-220.45 257.24,-220.45 360.76,-220.45 360.76,-220.45 366.76,-220.45 372.76,-226.45 372.76,-232.45 372.76,-232.45 372.76,-258.4 372.76,-258.4 372.76,-264.4 366.76,-270.4 360.76,-270.4"/>
<text xml:space="preserve" text-anchor="middle" x="309" y="-257.3" font-family="Segoe UI" font-size="10.00">Oscillator tuning point</text>
<text xml:space="preserve" text-anchor="middle" x="309" y="-243.05" font-family="Segoe UI" font-size="10.00">AM/SW oscillator tuning</text>
<text xml:space="preserve" text-anchor="middle" x="309" y="-228.8" font-family="Segoe UI" font-size="10.00">section (VC4) to chassis</text>
</g>
<!-- v3&#45;&gt;otp -->
<g id="edge6" class="edge">
<title>v3&#45;&gt;otp</title>
<path fill="none" stroke="black" d="M224.16,-332.24C228.08,-328.44 232.19,-324.42 236,-320.65 250.47,-306.3 266.35,-290.2 279.6,-276.67"/>
<polygon fill="black" stroke="black" points="281.28,-278.45 284.42,-271.73 277.78,-275.02 281.28,-278.45"/>
<text xml:space="preserve" text-anchor="middle" x="315.61" y="-312.1" font-family="Segoe UI" font-size="9.00">oscillator grid, pin 1,</text>
<text xml:space="preserve" text-anchor="middle" x="315.61" y="-299.35" font-family="Segoe UI" font-size="9.00">through C25; grid leak</text>
<text xml:space="preserve" text-anchor="middle" x="315.61" y="-286.6" font-family="Segoe UI" font-size="9.00">(R11) to chassis</text>
</g>
<!-- amb -->
<g id="node5" class="node">
<title>amb</title>
<text xml:space="preserve" text-anchor="middle" x="27" y="-348.27" font-family="Segoe UI" font-size="10.00">AM_B</text>
</g>
<!-- amb&#45;&gt;v3 -->
<g id="edge4" class="edge">
<title>amb&#45;&gt;v3</title>
<path fill="none" stroke="black" stroke-dasharray="5,2" d="M53.8,-350.65C71.51,-350.65 95.8,-350.65 119.78,-350.65"/>
<polygon fill="black" stroke="black" points="119.72,-353.1 126.72,-350.65 119.72,-348.2 119.72,-353.1"/>
<text xml:space="preserve" text-anchor="middle" x="91.37" y="-357.85" font-family="Segoe UI" font-size="9.00">screens, pin 6</text>
</g>
<!-- s1f -->
<g id="node8" class="node">
<title>s1f</title>
<path fill="none" stroke="black" d="M391.89,-195.45C391.89,-195.45 226.11,-195.45 226.11,-195.45 220.11,-195.45 214.11,-189.45 214.11,-183.45 214.11,-183.45 214.11,-171.45 214.11,-171.45 214.11,-165.45 220.11,-159.45 226.11,-159.45 226.11,-159.45 391.89,-159.45 391.89,-159.45 397.89,-159.45 403.89,-165.45 403.89,-171.45 403.89,-171.45 403.89,-183.45 403.89,-183.45 403.89,-189.45 397.89,-195.45 391.89,-195.45"/>
<text xml:space="preserve" text-anchor="middle" x="309" y="-175.07" font-family="Segoe UI" font-size="10.00">Mode switch, oscillator tank unit (S1F)</text>
</g>
<!-- otp&#45;&gt;s1f -->
<g id="edge7" class="edge">
<title>otp&#45;&gt;s1f</title>
<path fill="none" stroke="black" d="M309,-220.23C309,-215.05 309,-209.55 309,-204.31"/>
<polygon fill="black" stroke="black" points="311.45,-204.34 309,-197.34 306.55,-204.34 311.45,-204.34"/>
</g>
<!-- swosc -->
<g id="node9" class="node">
<title>swosc</title>
<path fill="none" stroke="black" d="M283.39,-122.7C283.39,-122.7 162.61,-122.7 162.61,-122.7 156.61,-122.7 150.61,-116.7 150.61,-110.7 150.61,-110.7 150.61,-84.75 150.61,-84.75 150.61,-78.75 156.61,-72.75 162.61,-72.75 162.61,-72.75 283.39,-72.75 283.39,-72.75 289.39,-72.75 295.39,-78.75 295.39,-84.75 295.39,-84.75 295.39,-110.7 295.39,-110.7 295.39,-116.7 289.39,-122.7 283.39,-122.7"/>
<text xml:space="preserve" text-anchor="middle" x="223" y="-109.6" font-family="Segoe UI" font-size="10.00">SW: padder (C26)</text>
<text xml:space="preserve" text-anchor="middle" x="223" y="-95.35" font-family="Segoe UI" font-size="10.00">to the SW oscillator coil (L9);</text>
<text xml:space="preserve" text-anchor="middle" x="223" y="-81.1" font-family="Segoe UI" font-size="10.00">trimmer (C22B) to chassis</text>
</g>
<!-- s1f&#45;&gt;swosc -->
<g id="edge8" class="edge">
<title>s1f&#45;&gt;swosc</title>
<path fill="none" stroke="black" d="M289.91,-159.2C279.98,-150.22 267.54,-138.98 256.1,-128.64"/>
<polygon fill="black" stroke="black" points="257.82,-126.89 250.98,-124.02 254.53,-130.53 257.82,-126.89"/>
<text xml:space="preserve" text-anchor="middle" x="282.61" y="-138.9" font-family="Segoe UI" font-size="9.00">SW</text>
</g>
<!-- amosc -->
<g id="node10" class="node">
<title>amosc</title>
<path fill="none" stroke="black" d="M460.26,-122.7C460.26,-122.7 329.74,-122.7 329.74,-122.7 323.74,-122.7 317.74,-116.7 317.74,-110.7 317.74,-110.7 317.74,-84.75 317.74,-84.75 317.74,-78.75 323.74,-72.75 329.74,-72.75 329.74,-72.75 460.26,-72.75 460.26,-72.75 466.26,-72.75 472.26,-78.75 472.26,-84.75 472.26,-84.75 472.26,-110.7 472.26,-110.7 472.26,-116.7 466.26,-122.7 460.26,-122.7"/>
<text xml:space="preserve" text-anchor="middle" x="395" y="-109.6" font-family="Segoe UI" font-size="10.00">AM: trimmer (C23B) to chassis,</text>
<text xml:space="preserve" text-anchor="middle" x="395" y="-95.35" font-family="Segoe UI" font-size="10.00">padder (C27) to the</text>
<text xml:space="preserve" text-anchor="middle" x="395" y="-81.1" font-family="Segoe UI" font-size="10.00">AM oscillator coil (L8)</text>
</g>
<!-- s1f&#45;&gt;amosc -->
<g id="edge9" class="edge">
<title>s1f&#45;&gt;amosc</title>
<path fill="none" stroke="black" d="M328.09,-159.2C338.02,-150.22 350.46,-138.98 361.9,-128.64"/>
<polygon fill="black" stroke="black" points="363.47,-130.53 367.02,-124.02 360.18,-126.89 363.47,-130.53"/>
<text xml:space="preserve" text-anchor="middle" x="361.7" y="-138.9" font-family="Segoe UI" font-size="9.00">AM</text>
</g>
<!-- s1g -->
<g id="node11" class="node">
<title>s1g</title>
<path fill="none" stroke="black" d="M401.76,-36C401.76,-36 214.24,-36 214.24,-36 208.24,-36 202.24,-30 202.24,-24 202.24,-24 202.24,-12 202.24,-12 202.24,-6 208.24,0 214.24,0 214.24,0 401.76,0 401.76,0 407.76,0 413.76,-6 413.76,-12 413.76,-12 413.76,-24 413.76,-24 413.76,-30 407.76,-36 401.76,-36"/>
<text xml:space="preserve" text-anchor="middle" x="308" y="-22.75" font-family="Segoe UI" font-size="10.00">Mode switch, oscillator feedback unit (S1G)</text>
<text xml:space="preserve" text-anchor="middle" x="308" y="-8.5" font-family="Segoe UI" font-size="10.00">coil&#39;s tap to the cathode</text>
</g>
<!-- swosc&#45;&gt;s1g -->
<g id="edge10" class="edge">
<title>swosc&#45;&gt;s1g</title>
<path fill="none" stroke="black" d="M249.43,-72.56C260,-62.89 272.13,-51.8 282.6,-42.22"/>
<polygon fill="black" stroke="black" points="284.25,-44.04 287.76,-37.51 280.94,-40.42 284.25,-44.04"/>
<text xml:space="preserve" text-anchor="middle" x="290.61" y="-52.2" font-family="Segoe UI" font-size="9.00">L9&#39;s tap</text>
</g>
<!-- amosc&#45;&gt;s1g -->
<g id="edge11" class="edge">
<title>amosc&#45;&gt;s1g</title>
<path fill="none" stroke="black" d="M367.95,-72.56C357.02,-62.8 344.48,-51.59 333.69,-41.95"/>
<polygon fill="black" stroke="black" points="335.55,-40.33 328.7,-37.5 332.29,-43.99 335.55,-40.33"/>
<text xml:space="preserve" text-anchor="middle" x="369.11" y="-52.2" font-family="Segoe UI" font-size="9.00">L8&#39;s tap</text>
</g>
<!-- s1g&#45;&gt;v3 -->
<g id="edge12" class="edge">
<title>s1g&#45;&gt;v3</title>
<path fill="none" stroke="black" d="M414.16,-29.14C440.8,-37.03 466.47,-50.38 483,-72.75 496.19,-90.6 488.94,-101.31 483,-122.7 455.56,-221.62 448.4,-262.22 364,-320.65 351.74,-329.14 322.15,-335.6 291.85,-340.24"/>
<polygon fill="black" stroke="black" points="291.78,-337.77 285.22,-341.22 292.5,-342.62 291.78,-337.77"/>
<text xml:space="preserve" text-anchor="middle" x="500.86" y="-175.27" font-family="Segoe UI" font-size="9.00">cathode, pin 2</text>
</g>
</g>
</svg>
