<?xml version="1.0" encoding="UTF-8" standalone="no"?>
<!DOCTYPE svg PUBLIC "-//W3C//DTD SVG 1.1//EN"
 "http://www.w3.org/Graphics/SVG/1.1/DTD/svg11.dtd">
<!-- Generated by graphviz version 16.1.0 (20260904.0139)
 -->
<!-- Title: gates Pages: 1 -->
<svg width="542pt" height="807pt"
 viewBox="0.00 0.00 542.00 807.00" xmlns="http://www.w3.org/2000/svg" xmlns:xlink="http://www.w3.org/1999/xlink">
<g id="graph0" class="graph" transform="scale(1 1) rotate(0) translate(4 802.62)">
<title>gates</title>
<polygon fill="white" stroke="none" points="-4,4 -4,-802.62 538.4,-802.62 538.4,4 -4,4"/>
<!-- ask -->
<g id="node1" class="node">
<title>ask</title>
<path fill="none" stroke="black" stroke-width="2" d="M509.28,-798.62C509.28,-798.62 396.75,-798.62 396.75,-798.62 390.75,-798.62 384.75,-792.62 384.75,-786.62 384.75,-786.62 384.75,-759.23 384.75,-759.23 384.75,-753.23 390.75,-747.23 396.75,-747.23 396.75,-747.23 509.28,-747.23 509.28,-747.23 515.28,-747.23 521.28,-753.23 521.28,-759.23 521.28,-759.23 521.28,-786.62 521.28,-786.62 521.28,-792.62 515.28,-798.62 509.28,-798.62"/>
<text xml:space="preserve" text-anchor="middle" x="453.01" y="-784.8" font-family="Segoe UI" font-size="10.00">Measure this dial position,</text>
<text xml:space="preserve" text-anchor="middle" x="453.01" y="-770.55" font-family="Segoe UI" font-size="10.00">console V,</text>
<text xml:space="preserve" text-anchor="middle" x="453.01" y="-756.3" font-family="Segoe UI" font-size="10.00">or the automatic trigger</text>
</g>
<!-- start -->
<g id="node2" class="node">
<title>start</title>
<path fill="none" stroke="black" d="M522.4,-722.23C522.4,-722.23 383.62,-722.23 383.62,-722.23 377.62,-722.23 371.62,-716.23 371.62,-710.23 371.62,-710.23 371.62,-611.59 371.62,-611.59 371.62,-605.59 377.62,-599.59 383.62,-599.59 383.62,-599.59 522.4,-599.59 522.4,-599.59 528.4,-599.59 534.4,-605.59 534.4,-611.59 534.4,-611.59 534.4,-710.23 534.4,-710.23 534.4,-716.23 528.4,-722.23 522.4,-722.23"/>
<text xml:space="preserve" text-anchor="middle" x="453.01" y="-708.41" font-family="Segoe UI" font-size="10.00">Start gates, in order</text>
<text xml:space="preserve" text-anchor="middle" x="453.01" y="-694.16" font-family="Segoe UI" font-size="10.00">1 none running</text>
<text xml:space="preserve" text-anchor="middle" x="453.01" y="-679.91" font-family="Segoe UI" font-size="10.00">2 RDA answers</text>
<text xml:space="preserve" text-anchor="middle" x="453.01" y="-665.66" font-family="Segoe UI" font-size="10.00">3 RDA not sweeping</text>
<text xml:space="preserve" text-anchor="middle" x="453.01" y="-651.41" font-family="Segoe UI" font-size="10.00">4 amp on and RADIO</text>
<text xml:space="preserve" text-anchor="middle" x="453.01" y="-637.16" font-family="Segoe UI" font-size="10.00">5 angle sensor answers</text>
<text xml:space="preserve" text-anchor="middle" x="453.01" y="-622.91" font-family="Segoe UI" font-size="10.00">6 predicted LO near the window</text>
<text xml:space="preserve" text-anchor="middle" x="453.01" y="-608.66" font-family="Segoe UI" font-size="10.00">7 narrow sweep accepted</text>
</g>
<!-- ask&#45;&gt;start -->
<g id="edge1" class="edge">
<title>ask&#45;&gt;start</title>
<path fill="none" stroke="black" d="M453.01,-746.96C453.01,-742.02 453.01,-736.61 453.01,-730.99"/>
<polygon fill="black" stroke="black" points="455.47,-731.16 453.02,-724.16 450.57,-731.16 455.47,-731.16"/>
</g>
<!-- sweep -->
<g id="node3" class="node">
<title>sweep</title>
<path fill="none" stroke="black" d="M452.15,-562.84C452.15,-562.84 353.88,-562.84 353.88,-562.84 347.88,-562.84 341.88,-556.84 341.88,-550.84 341.88,-550.84 341.88,-523.45 341.88,-523.45 341.88,-517.45 347.88,-511.45 353.88,-511.45 353.88,-511.45 452.15,-511.45 452.15,-511.45 458.15,-511.45 464.15,-517.45 464.15,-523.45 464.15,-523.45 464.15,-550.84 464.15,-550.84 464.15,-556.84 458.15,-562.84 452.15,-562.84"/>
<text xml:space="preserve" text-anchor="middle" x="403.01" y="-549.02" font-family="Segoe UI" font-size="10.00">Sweep runs</text>
<text xml:space="preserve" text-anchor="middle" x="403.01" y="-534.77" font-family="Segoe UI" font-size="10.00">shaft count and</text>
<text xml:space="preserve" text-anchor="middle" x="403.01" y="-520.52" font-family="Segoe UI" font-size="10.00">outage count recorded</text>
</g>
<!-- start&#45;&gt;sweep -->
<g id="edge2" class="edge">
<title>start&#45;&gt;sweep</title>
<path fill="none" stroke="black" d="M428.16,-599.38C424.15,-589.6 420.13,-579.81 416.51,-571.02"/>
<polygon fill="black" stroke="black" points="418.82,-570.2 413.9,-564.65 414.29,-572.06 418.82,-570.2"/>
<text xml:space="preserve" text-anchor="middle" x="436.32" y="-579.04" font-family="Segoe UI" font-size="9.00">all pass</text>
</g>
<!-- refused -->
<g id="node10" class="node">
<title>refused</title>
<path fill="#fde2e2" stroke="black" d="M426.15,-51.39C426.15,-51.39 291.88,-51.39 291.88,-51.39 285.88,-51.39 279.88,-45.39 279.88,-39.39 279.88,-39.39 279.88,-12 279.88,-12 279.88,-6 285.88,0 291.88,0 291.88,0 426.15,0 426.15,0 432.15,0 438.15,-6 438.15,-12 438.15,-12 438.15,-39.39 438.15,-39.39 438.15,-45.39 432.15,-51.39 426.15,-51.39"/>
<text xml:space="preserve" text-anchor="middle" x="359.01" y="-37.57" font-family="Segoe UI" font-size="10.00">REFUSED · ABANDONED</text>
<text xml:space="preserve" text-anchor="middle" x="359.01" y="-23.32" font-family="Segoe UI" font-size="10.00">DISCARDED · NOTHING FOUND</text>
<text xml:space="preserve" text-anchor="middle" x="359.01" y="-9.07" font-family="Segoe UI" font-size="10.00">the message says why</text>
</g>
<!-- start&#45;&gt;refused -->
<g id="edge3" class="edge">
<title>start&#45;&gt;refused</title>
<path fill="none" stroke="#b00000" d="M486.29,-599.38C494.01,-580.35 500.01,-558.88 500.01,-538.14 500.01,-538.14 500.01,-538.14 500.01,-112.84 500.01,-82.03 475.2,-61.91 446.39,-48.93"/>
<polygon fill="#b00000" stroke="#b00000" points="447.37,-46.69 439.97,-46.21 445.46,-51.2 447.37,-46.69"/>
<text xml:space="preserve" text-anchor="middle" x="516.14" y="-334.81" font-family="Segoe UI" font-size="9.00" fill="#b00000">any fails</text>
</g>
<!-- checks -->
<g id="node4" class="node">
<title>checks</title>
<path fill="none" stroke="black" d="M453.15,-486.45C453.15,-486.45 342.88,-486.45 342.88,-486.45 336.88,-486.45 330.88,-480.45 330.88,-474.45 330.88,-474.45 330.88,-418.56 330.88,-418.56 330.88,-412.56 336.88,-406.56 342.88,-406.56 342.88,-406.56 453.15,-406.56 453.15,-406.56 459.15,-406.56 465.15,-412.56 465.15,-418.56 465.15,-418.56 465.15,-474.45 465.15,-474.45 465.15,-480.45 459.15,-486.45 453.15,-486.45"/>
<text xml:space="preserve" text-anchor="middle" x="398.01" y="-472.63" font-family="Segoe UI" font-size="10.00">After each stage</text>
<text xml:space="preserve" text-anchor="middle" x="398.01" y="-458.38" font-family="Segoe UI" font-size="10.00">shaft moved ≤ 20 counts?</text>
<text xml:space="preserve" text-anchor="middle" x="398.01" y="-444.13" font-family="Segoe UI" font-size="10.00">still amp on and RADIO?</text>
<text xml:space="preserve" text-anchor="middle" x="398.01" y="-429.88" font-family="Segoe UI" font-size="10.00">no bus failure?</text>
<text xml:space="preserve" text-anchor="middle" x="398.01" y="-415.63" font-family="Segoe UI" font-size="10.00">RDA not lost?</text>
</g>
<!-- sweep&#45;&gt;checks -->
<g id="edge4" class="edge">
<title>sweep&#45;&gt;checks</title>
<path fill="none" stroke="black" d="M401.6,-510.98C401.31,-505.89 401,-500.38 400.68,-494.81"/>
<polygon fill="black" stroke="black" points="403.15,-495.01 400.31,-488.16 398.26,-495.29 403.15,-495.01"/>
</g>
<!-- cand -->
<g id="node5" class="node">
<title>cand</title>
<path fill="none" stroke="black" d="M320.03,-369.81C320.03,-369.81 212,-369.81 212,-369.81 206,-369.81 200,-363.81 200,-357.81 200,-357.81 200,-316.17 200,-316.17 200,-310.17 206,-304.17 212,-304.17 212,-304.17 320.03,-304.17 320.03,-304.17 326.03,-304.17 332.03,-310.17 332.03,-316.17 332.03,-316.17 332.03,-357.81 332.03,-357.81 332.03,-363.81 326.03,-369.81 320.03,-369.81"/>
<text xml:space="preserve" text-anchor="middle" x="266.01" y="-355.99" font-family="Segoe UI" font-size="10.00">Best candidate:</text>
<text xml:space="preserve" text-anchor="middle" x="266.01" y="-341.74" font-family="Segoe UI" font-size="10.00">margin over its local floor</text>
<text xml:space="preserve" text-anchor="middle" x="266.01" y="-327.49" font-family="Segoe UI" font-size="10.00">≥ 8 when asked</text>
<text xml:space="preserve" text-anchor="middle" x="266.01" y="-313.24" font-family="Segoe UI" font-size="10.00">≥ 14 when automatic?</text>
</g>
<!-- checks&#45;&gt;cand -->
<g id="edge6" class="edge">
<title>checks&#45;&gt;cand</title>
<path fill="none" stroke="black" d="M349.61,-406.08C337.21,-395.98 323.91,-385.14 311.64,-375.16"/>
<polygon fill="black" stroke="black" points="313.49,-373.5 306.51,-370.97 310.39,-377.29 313.49,-373.5"/>
<text xml:space="preserve" text-anchor="middle" x="338.39" y="-386.01" font-family="Segoe UI" font-size="9.00">yes</text>
</g>
<!-- checks&#45;&gt;refused -->
<g id="edge5" class="edge">
<title>checks&#45;&gt;refused</title>
<path fill="none" stroke="#b00000" d="M398.01,-406.18C398.01,-385.83 398.01,-360.58 398.01,-337.99 398.01,-337.99 398.01,-337.99 398.01,-112.84 398.01,-93.93 390.12,-74.6 381.44,-59.06"/>
<polygon fill="#b00000" stroke="#b00000" points="383.57,-57.85 377.91,-53.06 379.35,-60.33 383.57,-57.85"/>
<text xml:space="preserve" text-anchor="middle" x="403.26" y="-219.67" font-family="Segoe UI" font-size="9.00" fill="#b00000">no</text>
</g>
<!-- guard -->
<g id="node6" class="node">
<title>guard</title>
<path fill="none" stroke="black" d="M168.03,-254.67C168.03,-254.67 12,-254.67 12,-254.67 6,-254.67 0,-248.67 0,-242.67 0,-242.67 0,-201.03 0,-201.03 0,-195.03 6,-189.03 12,-189.03 12,-189.03 168.03,-189.03 168.03,-189.03 174.03,-189.03 180.03,-195.03 180.03,-201.03 180.03,-201.03 180.03,-242.67 180.03,-242.67 180.03,-248.67 174.03,-254.67 168.03,-254.67"/>
<text xml:space="preserve" text-anchor="middle" x="90.01" y="-240.85" font-family="Segoe UI" font-size="10.00">Notch guard:</text>
<text xml:space="preserve" text-anchor="middle" x="90.01" y="-226.6" font-family="Segoe UI" font-size="10.00">exactly 0.3 MHz from a fixed feature,</text>
<text xml:space="preserve" text-anchor="middle" x="90.01" y="-212.35" font-family="Segoe UI" font-size="10.00">and the bin inside the notch</text>
<text xml:space="preserve" text-anchor="middle" x="90.01" y="-198.1" font-family="Segoe UI" font-size="10.00">at least as strong (or not swept)?</text>
</g>
<!-- cand&#45;&gt;guard -->
<g id="edge7" class="edge">
<title>cand&#45;&gt;guard</title>
<path fill="none" stroke="black" d="M216.05,-303.87C194.59,-290.08 169.4,-273.88 147.2,-259.61"/>
<polygon fill="black" stroke="black" points="148.59,-257.59 141.38,-255.87 145.94,-261.71 148.59,-257.59"/>
<text xml:space="preserve" text-anchor="middle" x="200.15" y="-277.25" font-family="Segoe UI" font-size="9.00">yes</text>
</g>
<!-- wide -->
<g id="node8" class="node">
<title>wide</title>
<path fill="none" stroke="black" d="M274.4,-240.42C274.4,-240.42 213.62,-240.42 213.62,-240.42 207.62,-240.42 201.62,-234.42 201.62,-228.42 201.62,-228.42 201.62,-215.28 201.62,-215.28 201.62,-209.28 207.62,-203.28 213.62,-203.28 213.62,-203.28 274.4,-203.28 274.4,-203.28 280.4,-203.28 286.4,-209.28 286.4,-215.28 286.4,-215.28 286.4,-228.42 286.4,-228.42 286.4,-234.42 280.4,-240.42 274.4,-240.42"/>
<text xml:space="preserve" text-anchor="middle" x="244.01" y="-226.6" font-family="Segoe UI" font-size="10.00">Whole&#45;window</text>
<text xml:space="preserve" text-anchor="middle" x="244.01" y="-212.35" font-family="Segoe UI" font-size="10.00">sweep, once</text>
</g>
<!-- cand&#45;&gt;wide -->
<g id="edge8" class="edge">
<title>cand&#45;&gt;wide</title>
<path fill="none" stroke="black" d="M238.55,-303.77C236.42,-300.03 234.58,-296.14 233.26,-292.17 228.62,-278.2 230.76,-261.96 234.31,-248.71"/>
<polygon fill="black" stroke="black" points="236.56,-249.76 236.22,-242.35 231.86,-248.35 236.56,-249.76"/>
<text xml:space="preserve" text-anchor="middle" x="268.14" y="-283.62" font-family="Segoe UI" font-size="9.00">no, after</text>
<text xml:space="preserve" text-anchor="middle" x="268.14" y="-270.87" font-family="Segoe UI" font-size="9.00">the narrow sweep</text>
</g>
<!-- cand&#45;&gt;refused -->
<g id="edge9" class="edge">
<title>cand&#45;&gt;refused</title>
<path fill="none" stroke="#b00000" d="M297.54,-303.69C300.04,-300 302.27,-296.13 304.01,-292.17 329.37,-234.58 307.27,-213.1 320.26,-151.53 326.99,-119.67 338.35,-84.31 347.03,-59.38"/>
<polygon fill="#b00000" stroke="#b00000" points="349.23,-60.52 349.25,-53.1 344.61,-58.89 349.23,-60.52"/>
<text xml:space="preserve" text-anchor="middle" x="350.64" y="-168.48" font-family="Segoe UI" font-size="9.00" fill="#b00000">no, after</text>
<text xml:space="preserve" text-anchor="middle" x="350.64" y="-155.73" font-family="Segoe UI" font-size="9.00" fill="#b00000">the wide sweep</text>
</g>
<!-- fine -->
<g id="node7" class="node">
<title>fine</title>
<path fill="none" stroke="black" d="M147.03,-139.53C147.03,-139.53 33,-139.53 33,-139.53 27,-139.53 21,-133.53 21,-127.53 21,-127.53 21,-100.14 21,-100.14 21,-94.14 27,-88.14 33,-88.14 33,-88.14 147.03,-88.14 147.03,-88.14 153.03,-88.14 159.03,-94.14 159.03,-100.14 159.03,-100.14 159.03,-127.53 159.03,-127.53 159.03,-133.53 153.03,-139.53 147.03,-139.53"/>
<text xml:space="preserve" text-anchor="middle" x="90.01" y="-125.71" font-family="Segoe UI" font-size="10.00">Fine pass at 50 kHz</text>
<text xml:space="preserve" text-anchor="middle" x="90.01" y="-111.46" font-family="Segoe UI" font-size="10.00">&quot;pinning it down at 50 kHz</text>
<text xml:space="preserve" text-anchor="middle" x="90.01" y="-97.21" font-family="Segoe UI" font-size="10.00">(about 4 s)&quot;</text>
</g>
<!-- guard&#45;&gt;fine -->
<g id="edge12" class="edge">
<title>guard&#45;&gt;fine</title>
<path fill="none" stroke="black" d="M90.01,-188.75C90.01,-175.86 90.01,-160.99 90.01,-147.99"/>
<polygon fill="black" stroke="black" points="92.47,-148.27 90.02,-141.27 87.57,-148.27 92.47,-148.27"/>
<text xml:space="preserve" text-anchor="middle" x="95.26" y="-162.1" font-family="Segoe UI" font-size="9.00">no</text>
</g>
<!-- guard&#45;&gt;refused -->
<g id="edge11" class="edge">
<title>guard&#45;&gt;refused</title>
<path fill="none" stroke="#b00000" d="M121.06,-188.66C154.31,-154.62 205.35,-103.72 228.01,-88.14 246.19,-75.65 267.3,-64.5 287.2,-55.24"/>
<polygon fill="#b00000" stroke="#b00000" points="288.04,-57.55 293.38,-52.41 286,-53.09 288.04,-57.55"/>
<text xml:space="preserve" text-anchor="middle" x="265.51" y="-118.04" font-family="Segoe UI" font-size="9.00" fill="#b00000">yes: &quot;Move the dial</text>
<text xml:space="preserve" text-anchor="middle" x="265.51" y="-105.29" font-family="Segoe UI" font-size="9.00" fill="#b00000">0.3 MHz and retry&quot;</text>
</g>
<!-- store -->
<g id="node9" class="node">
<title>store</title>
<path fill="#e3eefc" stroke="black" d="M115.53,-43.7C115.53,-43.7 64.5,-43.7 64.5,-43.7 58.5,-43.7 52.5,-37.7 52.5,-31.7 52.5,-31.7 52.5,-19.69 52.5,-19.69 52.5,-13.7 58.5,-7.7 64.5,-7.7 64.5,-7.7 115.53,-7.7 115.53,-7.7 121.53,-7.7 127.53,-13.7 127.53,-19.7 127.53,-19.7 127.53,-31.7 127.53,-31.7 127.53,-37.7 121.53,-43.7 115.53,-43.7"/>
<text xml:space="preserve" text-anchor="middle" x="90.01" y="-23.32" font-family="Segoe UI" font-size="10.00">Storing rules</text>
</g>
<!-- fine&#45;&gt;store -->
<g id="edge13" class="edge">
<title>fine&#45;&gt;store</title>
<path fill="none" stroke="black" d="M90.01,-87.92C90.01,-76.86 90.01,-63.85 90.01,-52.68"/>
<polygon fill="black" stroke="black" points="92.47,-52.69 90.02,-45.69 87.57,-52.69 92.47,-52.69"/>
<text xml:space="preserve" text-anchor="middle" x="118.14" y="-67.59" font-family="Segoe UI" font-size="9.00">checks passed</text>
</g>
<!-- wide&#45;&gt;checks -->
<g id="edge10" class="edge">
<title>wide&#45;&gt;checks</title>
<path fill="none" stroke="black" d="M277.12,-240.9C319.11,-266.03 389.18,-315.97 415.01,-381.81 417.07,-387.04 417.71,-392.6 417.4,-398.17"/>
<polygon fill="black" stroke="black" points="415.01,-397.56 416.53,-404.82 419.87,-398.19 415.01,-397.56"/>
</g>
</g>
</svg>
