<?xml version="1.0" encoding="UTF-8" standalone="no"?>
<!DOCTYPE svg PUBLIC "-//W3C//DTD SVG 1.1//EN"
 "http://www.w3.org/Graphics/SVG/1.1/DTD/svg11.dtd">
<!-- Generated by graphviz version 16.1.0 (20260904.0139)
 -->
<!-- Title: captive Pages: 1 -->
<svg width="401pt" height="455pt"
 viewBox="0.00 0.00 401.00 455.00" xmlns="http://www.w3.org/2000/svg" xmlns:xlink="http://www.w3.org/1999/xlink">
<g id="graph0" class="graph" transform="scale(1 1) rotate(0) translate(4 450.84)">
<title>captive</title>
<polygon fill="white" stroke="none" points="-4,4 -4,-450.84 396.66,-450.84 396.66,4 -4,4"/>
<!-- p1 -->
<g id="node1" class="node">
<title>p1</title>
<path fill="none" stroke="black" d="M271.16,-446.84C271.16,-446.84 136.25,-446.84 136.25,-446.84 130.25,-446.84 124.25,-440.84 124.25,-434.84 124.25,-434.84 124.25,-421.7 124.25,-421.7 124.25,-415.7 130.25,-409.7 136.25,-409.7 136.25,-409.7 271.16,-409.7 271.16,-409.7 277.16,-409.7 283.16,-415.7 283.16,-421.7 283.16,-421.7 283.16,-434.84 283.16,-434.84 283.16,-440.84 277.16,-446.84 271.16,-446.84"/>
<text xml:space="preserve" text-anchor="middle" x="203.7" y="-433.02" font-family="Segoe UI" font-size="10.00">1. The phone joins Ambersong</text>
<text xml:space="preserve" text-anchor="middle" x="203.7" y="-418.77" font-family="Segoe UI" font-size="10.00">(open: no password asked)</text>
</g>
<!-- p2 -->
<g id="node2" class="node">
<title>p2</title>
<path fill="none" stroke="black" d="M318.41,-382.7C318.41,-382.7 89,-382.7 89,-382.7 83,-382.7 77,-376.7 77,-370.7 77,-370.7 77,-343.31 77,-343.31 77,-337.31 83,-331.31 89,-331.31 89,-331.31 318.41,-331.31 318.41,-331.31 324.41,-331.31 330.41,-337.31 330.41,-343.31 330.41,-343.31 330.41,-370.7 330.41,-370.7 330.41,-376.7 324.41,-382.7 318.41,-382.7"/>
<text xml:space="preserve" text-anchor="middle" x="203.7" y="-368.88" font-family="Segoe UI" font-size="10.00">2. The phone checks for the internet</text>
<text xml:space="preserve" text-anchor="middle" x="203.7" y="-354.63" font-family="Segoe UI" font-size="10.00">Android: generate_204 · Apple: hotspot&#45;detect.html</text>
<text xml:space="preserve" text-anchor="middle" x="203.7" y="-340.38" font-family="Segoe UI" font-size="10.00">Windows: connecttest.txt</text>
</g>
<!-- p1&#45;&gt;p2 -->
<g id="edge1" class="edge">
<title>p1&#45;&gt;p2</title>
<path fill="none" stroke="black" d="M203.7,-409.43C203.7,-403.92 203.7,-397.66 203.7,-391.45"/>
<polygon fill="black" stroke="black" points="206.16,-391.6 203.71,-384.6 201.26,-391.6 206.16,-391.6"/>
</g>
<!-- p3 -->
<g id="node3" class="node">
<title>p3</title>
<path fill="#e3eefc" stroke="black" d="M332.28,-304.31C332.28,-304.31 75.12,-304.31 75.12,-304.31 69.12,-304.31 63.12,-298.31 63.12,-292.31 63.12,-292.31 63.12,-279.17 63.12,-279.17 63.12,-273.17 69.12,-267.17 75.12,-267.17 75.12,-267.17 332.28,-267.17 332.28,-267.17 338.28,-267.17 344.28,-273.17 344.28,-279.17 344.28,-279.17 344.28,-292.31 344.28,-292.31 344.28,-298.31 338.28,-304.31 332.28,-304.31"/>
<text xml:space="preserve" text-anchor="middle" x="203.7" y="-290.49" font-family="Segoe UI" font-size="10.00">3. The S3&#39;s DNS server answers the name</text>
<text xml:space="preserve" text-anchor="middle" x="203.7" y="-276.24" font-family="Segoe UI" font-size="10.00">with 192.168.4.1 (every name, while the access point is up)</text>
</g>
<!-- p2&#45;&gt;p3 -->
<g id="edge2" class="edge">
<title>p2&#45;&gt;p3</title>
<path fill="none" stroke="black" d="M203.7,-331C203.7,-325.17 203.7,-318.94 203.7,-313.05"/>
<polygon fill="black" stroke="black" points="206.16,-313.27 203.71,-306.27 201.26,-313.27 206.16,-313.27"/>
</g>
<!-- p4 -->
<g id="node4" class="node">
<title>p4</title>
<path fill="none" stroke="black" d="M298.53,-240.17C298.53,-240.17 108.88,-240.17 108.88,-240.17 102.88,-240.17 96.87,-234.17 96.87,-228.17 96.87,-228.17 96.87,-215.03 96.87,-215.03 96.87,-209.03 102.87,-203.03 108.87,-203.03 108.87,-203.03 298.53,-203.03 298.53,-203.03 304.53,-203.03 310.53,-209.03 310.53,-215.03 310.53,-215.03 310.53,-228.17 310.53,-228.17 310.53,-234.17 304.53,-240.17 298.53,-240.17"/>
<text xml:space="preserve" text-anchor="middle" x="203.7" y="-226.35" font-family="Segoe UI" font-size="10.00">4. The phone asks the portal for that path;</text>
<text xml:space="preserve" text-anchor="middle" x="203.7" y="-212.1" font-family="Segoe UI" font-size="10.00">the portal does not know it</text>
</g>
<!-- p3&#45;&gt;p4 -->
<g id="edge3" class="edge">
<title>p3&#45;&gt;p4</title>
<path fill="none" stroke="black" d="M203.7,-266.77C203.7,-261.05 203.7,-254.61 203.7,-248.45"/>
<polygon fill="black" stroke="black" points="206.16,-248.83 203.71,-241.83 201.26,-248.83 206.16,-248.83"/>
</g>
<!-- p5 -->
<g id="node5" class="node">
<title>p5</title>
<path fill="#e3eefc" stroke="black" d="M264.41,-176.03C264.41,-176.03 143,-176.03 143,-176.03 137,-176.03 131,-170.03 131,-164.03 131,-164.03 131,-150.89 131,-150.89 131,-144.89 137,-138.89 143,-138.89 143,-138.89 264.41,-138.89 264.41,-138.89 270.41,-138.89 276.41,-144.89 276.41,-150.89 276.41,-150.89 276.41,-164.03 276.41,-164.03 276.41,-170.03 270.41,-176.03 264.41,-176.03"/>
<text xml:space="preserve" text-anchor="middle" x="203.7" y="-162.21" font-family="Segoe UI" font-size="10.00">5. The portal answers 302</text>
<text xml:space="preserve" text-anchor="middle" x="203.7" y="-147.96" font-family="Segoe UI" font-size="10.00">Location: http://192.168.4.1/</text>
</g>
<!-- p4&#45;&gt;p5 -->
<g id="edge4" class="edge">
<title>p4&#45;&gt;p5</title>
<path fill="none" stroke="black" d="M203.7,-202.63C203.7,-196.91 203.7,-190.47 203.7,-184.31"/>
<polygon fill="black" stroke="black" points="206.16,-184.69 203.71,-177.69 201.26,-184.69 206.16,-184.69"/>
</g>
<!-- p6 -->
<g id="node6" class="node">
<title>p6</title>
<path fill="none" stroke="black" stroke-width="2" d="M187.41,-100.14C187.41,-100.14 12,-100.14 12,-100.14 6,-100.14 0,-94.14 0,-88.14 0,-88.14 0,-75 0,-75 0,-69 6,-63 12,-63 12,-63 187.41,-63 187.41,-63 193.41,-63 199.41,-69 199.41,-75 199.41,-75 199.41,-88.14 199.41,-88.14 199.41,-94.14 193.41,-100.14 187.41,-100.14"/>
<text xml:space="preserve" text-anchor="middle" x="99.7" y="-86.32" font-family="Segoe UI" font-size="10.00">6. Not the expected answer: the phone</text>
<text xml:space="preserve" text-anchor="middle" x="99.7" y="-72.07" font-family="Segoe UI" font-size="10.00">opens the portal&#39;s sign&#45;in page by itself</text>
</g>
<!-- p5&#45;&gt;p6 -->
<g id="edge5" class="edge">
<title>p5&#45;&gt;p6</title>
<path fill="none" stroke="black" d="M178.53,-138.57C164.45,-128.57 146.77,-116.01 131.72,-105.31"/>
<polygon fill="black" stroke="black" points="133.37,-103.48 126.24,-101.42 130.53,-107.48 133.37,-103.48"/>
</g>
<!-- p7 -->
<g id="node7" class="node">
<title>p7</title>
<path fill="#fde2e2" stroke="black" d="M380.66,-100.14C380.66,-100.14 236.75,-100.14 236.75,-100.14 230.75,-100.14 224.75,-94.14 224.75,-88.14 224.75,-88.14 224.75,-75 224.75,-75 224.75,-69 230.75,-63 236.75,-63 236.75,-63 380.66,-63 380.66,-63 386.66,-63 392.66,-69 392.66,-75 392.66,-75 392.66,-88.14 392.66,-88.14 392.66,-94.14 386.66,-100.14 380.66,-100.14"/>
<text xml:space="preserve" text-anchor="middle" x="308.7" y="-86.32" font-family="Segoe UI" font-size="10.00">Some phones do not:</text>
<text xml:space="preserve" text-anchor="middle" x="308.7" y="-72.07" font-family="Segoe UI" font-size="10.00">open http://192.168.4.1/ by hand</text>
</g>
<!-- p5&#45;&gt;p7 -->
<g id="edge7" class="edge">
<title>p5&#45;&gt;p7</title>
<path fill="none" stroke="#b00000" d="M229.12,-138.57C243.33,-128.57 261.19,-116.01 276.39,-105.31"/>
<polygon fill="#b00000" stroke="#b00000" points="277.61,-107.45 281.92,-101.42 274.79,-103.44 277.61,-107.45"/>
<text xml:space="preserve" text-anchor="middle" x="299.99" y="-117.34" font-family="Segoe UI" font-size="9.00" fill="#b00000">the phone&#39;s choice</text>
</g>
<!-- p8 -->
<g id="node8" class="node">
<title>p8</title>
<text xml:space="preserve" text-anchor="middle" x="203.7" y="-15.62" font-family="Segoe UI" font-size="10.00">The portal&#39;s sign&#45;in guards every action</text>
</g>
<!-- p6&#45;&gt;p8 -->
<g id="edge6" class="edge">
<title>p6&#45;&gt;p8</title>
<path fill="none" stroke="black" d="M130.07,-62.6C141.99,-55.53 155.77,-47.38 168.16,-40.04"/>
<polygon fill="black" stroke="black" points="169.19,-42.28 173.97,-36.61 166.69,-38.06 169.19,-42.28"/>
</g>
<!-- p7&#45;&gt;p8 -->
<g id="edge8" class="edge">
<title>p7&#45;&gt;p8</title>
<path fill="none" stroke="black" d="M278.05,-62.6C266.01,-55.53 252.1,-47.38 239.59,-40.04"/>
<polygon fill="black" stroke="black" points="241,-38.03 233.72,-36.6 238.52,-42.26 241,-38.03"/>
</g>
</g>
</svg>
